<?xml version="1.0" encoding="utf-8" standalone="no"?>
<!DOCTYPE svg PUBLIC "-//W3C//DTD SVG 1.1//EN"
  "http://www.w3.org/Graphics/SVG/1.1/DTD/svg11.dtd">
<svg xmlns:xlink="http://www.w3.org/1999/xlink" width="2728.428125pt" height="1139.878125pt" viewBox="0 0 2728.428125 1139.878125" xmlns="http://www.w3.org/2000/svg" version="1.1">
 <metadata>
  <rdf:RDF xmlns:dc="http://purl.org/dc/elements/1.1/" xmlns:cc="http://creativecommons.org/ns#" xmlns:rdf="http://www.w3.org/1999/02/22-rdf-syntax-ns#">
   <cc:Work>
    <dc:type rdf:resource="http://purl.org/dc/dcmitype/StillImage"/>
    <dc:date>2022-02-07T11:39:20.070424</dc:date>
    <dc:format>image/svg+xml</dc:format>
    <dc:creator>
     <cc:Agent>
      <dc:title>Matplotlib v3.5.1, https://matplotlib.org/</dc:title>
     </cc:Agent>
    </dc:creator>
   </cc:Work>
  </rdf:RDF>
 </metadata>
 <defs>
  <style type="text/css">*{stroke-linejoin: round; stroke-linecap: butt}</style>
 </defs>
 <g id="figure_1">
  <g id="patch_1">
   <path d="M 0 1139.878125 
L 2728.428125 1139.878125 
L 2728.428125 0 
L 0 0 
z
" style="fill: #ffffff"/>
  </g>
  <g id="axes_1">
   <g id="patch_2">
    <path d="M 42.828125 1116 
L 2721.228125 1116 
L 2721.228125 7.2 
L 42.828125 7.2 
z
" style="fill: #ffffff"/>
   </g>
   <g id="matplotlib.axis_1">
    <g id="xtick_1">
     <g id="line2d_1">
      <defs>
       <path id="m039316a0c8" d="M 0 0 
L 0 3.5 
" style="stroke: #000000; stroke-width: 0.8"/>
      </defs>
      <g>
       <use xlink:href="#m039316a0c8" x="164.57358" y="1116" style="stroke: #000000; stroke-width: 0.8"/>
      </g>
     </g>
     <g id="text_1">
      <!-- 0 -->
      <g transform="translate(161.39233 1130.598438)scale(0.1 -0.1)">
       <defs>
        <path id="DejaVuSans-30" d="M 2034 4250 
Q 1547 4250 1301 3770 
Q 1056 3291 1056 2328 
Q 1056 1369 1301 889 
Q 1547 409 2034 409 
Q 2525 409 2770 889 
Q 3016 1369 3016 2328 
Q 3016 3291 2770 3770 
Q 2525 4250 2034 4250 
z
M 2034 4750 
Q 2819 4750 3233 4129 
Q 3647 3509 3647 2328 
Q 3647 1150 3233 529 
Q 2819 -91 2034 -91 
Q 1250 -91 836 529 
Q 422 1150 422 2328 
Q 422 3509 836 4129 
Q 1250 4750 2034 4750 
z
" transform="scale(0.015625)"/>
       </defs>
       <use xlink:href="#DejaVuSans-30"/>
      </g>
     </g>
    </g>
    <g id="xtick_2">
     <g id="line2d_2">
      <g>
       <use xlink:href="#m039316a0c8" x="666.616691" y="1116" style="stroke: #000000; stroke-width: 0.8"/>
      </g>
     </g>
     <g id="text_2">
      <!-- 20 -->
      <g transform="translate(660.254191 1130.598438)scale(0.1 -0.1)">
       <defs>
        <path id="DejaVuSans-32" d="M 1228 531 
L 3431 531 
L 3431 0 
L 469 0 
L 469 531 
Q 828 903 1448 1529 
Q 2069 2156 2228 2338 
Q 2531 2678 2651 2914 
Q 2772 3150 2772 3378 
Q 2772 3750 2511 3984 
Q 2250 4219 1831 4219 
Q 1534 4219 1204 4116 
Q 875 4013 500 3803 
L 500 4441 
Q 881 4594 1212 4672 
Q 1544 4750 1819 4750 
Q 2544 4750 2975 4387 
Q 3406 4025 3406 3419 
Q 3406 3131 3298 2873 
Q 3191 2616 2906 2266 
Q 2828 2175 2409 1742 
Q 1991 1309 1228 531 
z
" transform="scale(0.015625)"/>
       </defs>
       <use xlink:href="#DejaVuSans-32"/>
       <use xlink:href="#DejaVuSans-30" x="63.623047"/>
      </g>
     </g>
    </g>
    <g id="xtick_3">
     <g id="line2d_3">
      <g>
       <use xlink:href="#m039316a0c8" x="1168.659803" y="1116" style="stroke: #000000; stroke-width: 0.8"/>
      </g>
     </g>
     <g id="text_3">
      <!-- 40 -->
      <g transform="translate(1162.297303 1130.598438)scale(0.1 -0.1)">
       <defs>
        <path id="DejaVuSans-34" d="M 2419 4116 
L 825 1625 
L 2419 1625 
L 2419 4116 
z
M 2253 4666 
L 3047 4666 
L 3047 1625 
L 3713 1625 
L 3713 1100 
L 3047 1100 
L 3047 0 
L 2419 0 
L 2419 1100 
L 313 1100 
L 313 1709 
L 2253 4666 
z
" transform="scale(0.015625)"/>
       </defs>
       <use xlink:href="#DejaVuSans-34"/>
       <use xlink:href="#DejaVuSans-30" x="63.623047"/>
      </g>
     </g>
    </g>
    <g id="xtick_4">
     <g id="line2d_4">
      <g>
       <use xlink:href="#m039316a0c8" x="1670.702914" y="1116" style="stroke: #000000; stroke-width: 0.8"/>
      </g>
     </g>
     <g id="text_4">
      <!-- 60 -->
      <g transform="translate(1664.340414 1130.598438)scale(0.1 -0.1)">
       <defs>
        <path id="DejaVuSans-36" d="M 2113 2584 
Q 1688 2584 1439 2293 
Q 1191 2003 1191 1497 
Q 1191 994 1439 701 
Q 1688 409 2113 409 
Q 2538 409 2786 701 
Q 3034 994 3034 1497 
Q 3034 2003 2786 2293 
Q 2538 2584 2113 2584 
z
M 3366 4563 
L 3366 3988 
Q 3128 4100 2886 4159 
Q 2644 4219 2406 4219 
Q 1781 4219 1451 3797 
Q 1122 3375 1075 2522 
Q 1259 2794 1537 2939 
Q 1816 3084 2150 3084 
Q 2853 3084 3261 2657 
Q 3669 2231 3669 1497 
Q 3669 778 3244 343 
Q 2819 -91 2113 -91 
Q 1303 -91 875 529 
Q 447 1150 447 2328 
Q 447 3434 972 4092 
Q 1497 4750 2381 4750 
Q 2619 4750 2861 4703 
Q 3103 4656 3366 4563 
z
" transform="scale(0.015625)"/>
       </defs>
       <use xlink:href="#DejaVuSans-36"/>
       <use xlink:href="#DejaVuSans-30" x="63.623047"/>
      </g>
     </g>
    </g>
    <g id="xtick_5">
     <g id="line2d_5">
      <g>
       <use xlink:href="#m039316a0c8" x="2172.746026" y="1116" style="stroke: #000000; stroke-width: 0.8"/>
      </g>
     </g>
     <g id="text_5">
      <!-- 80 -->
      <g transform="translate(2166.383526 1130.598438)scale(0.1 -0.1)">
       <defs>
        <path id="DejaVuSans-38" d="M 2034 2216 
Q 1584 2216 1326 1975 
Q 1069 1734 1069 1313 
Q 1069 891 1326 650 
Q 1584 409 2034 409 
Q 2484 409 2743 651 
Q 3003 894 3003 1313 
Q 3003 1734 2745 1975 
Q 2488 2216 2034 2216 
z
M 1403 2484 
Q 997 2584 770 2862 
Q 544 3141 544 3541 
Q 544 4100 942 4425 
Q 1341 4750 2034 4750 
Q 2731 4750 3128 4425 
Q 3525 4100 3525 3541 
Q 3525 3141 3298 2862 
Q 3072 2584 2669 2484 
Q 3125 2378 3379 2068 
Q 3634 1759 3634 1313 
Q 3634 634 3220 271 
Q 2806 -91 2034 -91 
Q 1263 -91 848 271 
Q 434 634 434 1313 
Q 434 1759 690 2068 
Q 947 2378 1403 2484 
z
M 1172 3481 
Q 1172 3119 1398 2916 
Q 1625 2713 2034 2713 
Q 2441 2713 2670 2916 
Q 2900 3119 2900 3481 
Q 2900 3844 2670 4047 
Q 2441 4250 2034 4250 
Q 1625 4250 1398 4047 
Q 1172 3844 1172 3481 
z
" transform="scale(0.015625)"/>
       </defs>
       <use xlink:href="#DejaVuSans-38"/>
       <use xlink:href="#DejaVuSans-30" x="63.623047"/>
      </g>
     </g>
    </g>
    <g id="xtick_6">
     <g id="line2d_6">
      <g>
       <use xlink:href="#m039316a0c8" x="2674.789137" y="1116" style="stroke: #000000; stroke-width: 0.8"/>
      </g>
     </g>
     <g id="text_6">
      <!-- 100 -->
      <g transform="translate(2665.245387 1130.598438)scale(0.1 -0.1)">
       <defs>
        <path id="DejaVuSans-31" d="M 794 531 
L 1825 531 
L 1825 4091 
L 703 3866 
L 703 4441 
L 1819 4666 
L 2450 4666 
L 2450 531 
L 3481 531 
L 3481 0 
L 794 0 
L 794 531 
z
" transform="scale(0.015625)"/>
       </defs>
       <use xlink:href="#DejaVuSans-31"/>
       <use xlink:href="#DejaVuSans-30" x="63.623047"/>
       <use xlink:href="#DejaVuSans-30" x="127.246094"/>
      </g>
     </g>
    </g>
   </g>
   <g id="matplotlib.axis_2">
    <g id="ytick_1">
     <g id="line2d_7">
      <defs>
       <path id="m2a3149ab92" d="M 0 0 
L -3.5 0 
" style="stroke: #000000; stroke-width: 0.8"/>
      </defs>
      <g>
       <use xlink:href="#m2a3149ab92" x="42.828125" y="1116" style="stroke: #000000; stroke-width: 0.8"/>
      </g>
     </g>
     <g id="text_7">
      <!-- 0.0 -->
      <g transform="translate(19.925 1119.799219)scale(0.1 -0.1)">
       <defs>
        <path id="DejaVuSans-2e" d="M 684 794 
L 1344 794 
L 1344 0 
L 684 0 
L 684 794 
z
" transform="scale(0.015625)"/>
       </defs>
       <use xlink:href="#DejaVuSans-30"/>
       <use xlink:href="#DejaVuSans-2e" x="63.623047"/>
       <use xlink:href="#DejaVuSans-30" x="95.410156"/>
      </g>
     </g>
    </g>
    <g id="ytick_2">
     <g id="line2d_8">
      <g>
       <use xlink:href="#m2a3149ab92" x="42.828125" y="1059.550142" style="stroke: #000000; stroke-width: 0.8"/>
      </g>
     </g>
     <g id="text_8">
      <!-- 27.2 -->
      <g transform="translate(13.5625 1063.349361)scale(0.1 -0.1)">
       <defs>
        <path id="DejaVuSans-37" d="M 525 4666 
L 3525 4666 
L 3525 4397 
L 1831 0 
L 1172 0 
L 2766 4134 
L 525 4134 
L 525 4666 
z
" transform="scale(0.015625)"/>
       </defs>
       <use xlink:href="#DejaVuSans-32"/>
       <use xlink:href="#DejaVuSans-37" x="63.623047"/>
       <use xlink:href="#DejaVuSans-2e" x="127.246094"/>
       <use xlink:href="#DejaVuSans-32" x="159.033203"/>
      </g>
     </g>
    </g>
    <g id="ytick_3">
     <g id="line2d_9">
      <g>
       <use xlink:href="#m2a3149ab92" x="42.828125" y="1003.100284" style="stroke: #000000; stroke-width: 0.8"/>
      </g>
     </g>
     <g id="text_9">
      <!-- 54.4 -->
      <g transform="translate(13.5625 1006.899503)scale(0.1 -0.1)">
       <defs>
        <path id="DejaVuSans-35" d="M 691 4666 
L 3169 4666 
L 3169 4134 
L 1269 4134 
L 1269 2991 
Q 1406 3038 1543 3061 
Q 1681 3084 1819 3084 
Q 2600 3084 3056 2656 
Q 3513 2228 3513 1497 
Q 3513 744 3044 326 
Q 2575 -91 1722 -91 
Q 1428 -91 1123 -41 
Q 819 9 494 109 
L 494 744 
Q 775 591 1075 516 
Q 1375 441 1709 441 
Q 2250 441 2565 725 
Q 2881 1009 2881 1497 
Q 2881 1984 2565 2268 
Q 2250 2553 1709 2553 
Q 1456 2553 1204 2497 
Q 953 2441 691 2322 
L 691 4666 
z
" transform="scale(0.015625)"/>
       </defs>
       <use xlink:href="#DejaVuSans-35"/>
       <use xlink:href="#DejaVuSans-34" x="63.623047"/>
       <use xlink:href="#DejaVuSans-2e" x="127.246094"/>
       <use xlink:href="#DejaVuSans-34" x="159.033203"/>
      </g>
     </g>
    </g>
    <g id="ytick_4">
     <g id="line2d_10">
      <g>
       <use xlink:href="#m2a3149ab92" x="42.828125" y="946.650426" style="stroke: #000000; stroke-width: 0.8"/>
      </g>
     </g>
     <g id="text_10">
      <!-- 81.7 -->
      <g transform="translate(13.5625 950.449644)scale(0.1 -0.1)">
       <use xlink:href="#DejaVuSans-38"/>
       <use xlink:href="#DejaVuSans-31" x="63.623047"/>
       <use xlink:href="#DejaVuSans-2e" x="127.246094"/>
       <use xlink:href="#DejaVuSans-37" x="159.033203"/>
      </g>
     </g>
    </g>
    <g id="ytick_5">
     <g id="line2d_11">
      <g>
       <use xlink:href="#m2a3149ab92" x="42.828125" y="890.200568" style="stroke: #000000; stroke-width: 0.8"/>
      </g>
     </g>
     <g id="text_11">
      <!-- 108.9 -->
      <g transform="translate(7.2 893.999786)scale(0.1 -0.1)">
       <defs>
        <path id="DejaVuSans-39" d="M 703 97 
L 703 672 
Q 941 559 1184 500 
Q 1428 441 1663 441 
Q 2288 441 2617 861 
Q 2947 1281 2994 2138 
Q 2813 1869 2534 1725 
Q 2256 1581 1919 1581 
Q 1219 1581 811 2004 
Q 403 2428 403 3163 
Q 403 3881 828 4315 
Q 1253 4750 1959 4750 
Q 2769 4750 3195 4129 
Q 3622 3509 3622 2328 
Q 3622 1225 3098 567 
Q 2575 -91 1691 -91 
Q 1453 -91 1209 -44 
Q 966 3 703 97 
z
M 1959 2075 
Q 2384 2075 2632 2365 
Q 2881 2656 2881 3163 
Q 2881 3666 2632 3958 
Q 2384 4250 1959 4250 
Q 1534 4250 1286 3958 
Q 1038 3666 1038 3163 
Q 1038 2656 1286 2365 
Q 1534 2075 1959 2075 
z
" transform="scale(0.015625)"/>
       </defs>
       <use xlink:href="#DejaVuSans-31"/>
       <use xlink:href="#DejaVuSans-30" x="63.623047"/>
       <use xlink:href="#DejaVuSans-38" x="127.246094"/>
       <use xlink:href="#DejaVuSans-2e" x="190.869141"/>
       <use xlink:href="#DejaVuSans-39" x="222.65625"/>
      </g>
     </g>
    </g>
    <g id="ytick_6">
     <g id="line2d_12">
      <g>
       <use xlink:href="#m2a3149ab92" x="42.828125" y="833.750709" style="stroke: #000000; stroke-width: 0.8"/>
      </g>
     </g>
     <g id="text_12">
      <!-- 136.1 -->
      <g transform="translate(7.2 837.549928)scale(0.1 -0.1)">
       <defs>
        <path id="DejaVuSans-33" d="M 2597 2516 
Q 3050 2419 3304 2112 
Q 3559 1806 3559 1356 
Q 3559 666 3084 287 
Q 2609 -91 1734 -91 
Q 1441 -91 1130 -33 
Q 819 25 488 141 
L 488 750 
Q 750 597 1062 519 
Q 1375 441 1716 441 
Q 2309 441 2620 675 
Q 2931 909 2931 1356 
Q 2931 1769 2642 2001 
Q 2353 2234 1838 2234 
L 1294 2234 
L 1294 2753 
L 1863 2753 
Q 2328 2753 2575 2939 
Q 2822 3125 2822 3475 
Q 2822 3834 2567 4026 
Q 2313 4219 1838 4219 
Q 1578 4219 1281 4162 
Q 984 4106 628 3988 
L 628 4550 
Q 988 4650 1302 4700 
Q 1616 4750 1894 4750 
Q 2613 4750 3031 4423 
Q 3450 4097 3450 3541 
Q 3450 3153 3228 2886 
Q 3006 2619 2597 2516 
z
" transform="scale(0.015625)"/>
       </defs>
       <use xlink:href="#DejaVuSans-31"/>
       <use xlink:href="#DejaVuSans-33" x="63.623047"/>
       <use xlink:href="#DejaVuSans-36" x="127.246094"/>
       <use xlink:href="#DejaVuSans-2e" x="190.869141"/>
       <use xlink:href="#DejaVuSans-31" x="222.65625"/>
      </g>
     </g>
    </g>
    <g id="ytick_7">
     <g id="line2d_13">
      <g>
       <use xlink:href="#m2a3149ab92" x="42.828125" y="777.300851" style="stroke: #000000; stroke-width: 0.8"/>
      </g>
     </g>
     <g id="text_13">
      <!-- 163.3 -->
      <g transform="translate(7.2 781.10007)scale(0.1 -0.1)">
       <use xlink:href="#DejaVuSans-31"/>
       <use xlink:href="#DejaVuSans-36" x="63.623047"/>
       <use xlink:href="#DejaVuSans-33" x="127.246094"/>
       <use xlink:href="#DejaVuSans-2e" x="190.869141"/>
       <use xlink:href="#DejaVuSans-33" x="222.65625"/>
      </g>
     </g>
    </g>
    <g id="ytick_8">
     <g id="line2d_14">
      <g>
       <use xlink:href="#m2a3149ab92" x="42.828125" y="720.850993" style="stroke: #000000; stroke-width: 0.8"/>
      </g>
     </g>
     <g id="text_14">
      <!-- 190.6 -->
      <g transform="translate(7.2 724.650212)scale(0.1 -0.1)">
       <use xlink:href="#DejaVuSans-31"/>
       <use xlink:href="#DejaVuSans-39" x="63.623047"/>
       <use xlink:href="#DejaVuSans-30" x="127.246094"/>
       <use xlink:href="#DejaVuSans-2e" x="190.869141"/>
       <use xlink:href="#DejaVuSans-36" x="222.65625"/>
      </g>
     </g>
    </g>
    <g id="ytick_9">
     <g id="line2d_15">
      <g>
       <use xlink:href="#m2a3149ab92" x="42.828125" y="664.401135" style="stroke: #000000; stroke-width: 0.8"/>
      </g>
     </g>
     <g id="text_15">
      <!-- 217.8 -->
      <g transform="translate(7.2 668.200354)scale(0.1 -0.1)">
       <use xlink:href="#DejaVuSans-32"/>
       <use xlink:href="#DejaVuSans-31" x="63.623047"/>
       <use xlink:href="#DejaVuSans-37" x="127.246094"/>
       <use xlink:href="#DejaVuSans-2e" x="190.869141"/>
       <use xlink:href="#DejaVuSans-38" x="222.65625"/>
      </g>
     </g>
    </g>
    <g id="ytick_10">
     <g id="line2d_16">
      <g>
       <use xlink:href="#m2a3149ab92" x="42.828125" y="607.951277" style="stroke: #000000; stroke-width: 0.8"/>
      </g>
     </g>
     <g id="text_16">
      <!-- 245.0 -->
      <g transform="translate(7.2 611.750496)scale(0.1 -0.1)">
       <use xlink:href="#DejaVuSans-32"/>
       <use xlink:href="#DejaVuSans-34" x="63.623047"/>
       <use xlink:href="#DejaVuSans-35" x="127.246094"/>
       <use xlink:href="#DejaVuSans-2e" x="190.869141"/>
       <use xlink:href="#DejaVuSans-30" x="222.65625"/>
      </g>
     </g>
    </g>
    <g id="ytick_11">
     <g id="line2d_17">
      <g>
       <use xlink:href="#m2a3149ab92" x="42.828125" y="551.501419" style="stroke: #000000; stroke-width: 0.8"/>
      </g>
     </g>
     <g id="text_17">
      <!-- 272.2 -->
      <g transform="translate(7.2 555.300638)scale(0.1 -0.1)">
       <use xlink:href="#DejaVuSans-32"/>
       <use xlink:href="#DejaVuSans-37" x="63.623047"/>
       <use xlink:href="#DejaVuSans-32" x="127.246094"/>
       <use xlink:href="#DejaVuSans-2e" x="190.869141"/>
       <use xlink:href="#DejaVuSans-32" x="222.65625"/>
      </g>
     </g>
    </g>
    <g id="ytick_12">
     <g id="line2d_18">
      <g>
       <use xlink:href="#m2a3149ab92" x="42.828125" y="495.051561" style="stroke: #000000; stroke-width: 0.8"/>
      </g>
     </g>
     <g id="text_18">
      <!-- 299.5 -->
      <g transform="translate(7.2 498.85078)scale(0.1 -0.1)">
       <use xlink:href="#DejaVuSans-32"/>
       <use xlink:href="#DejaVuSans-39" x="63.623047"/>
       <use xlink:href="#DejaVuSans-39" x="127.246094"/>
       <use xlink:href="#DejaVuSans-2e" x="190.869141"/>
       <use xlink:href="#DejaVuSans-35" x="222.65625"/>
      </g>
     </g>
    </g>
    <g id="ytick_13">
     <g id="line2d_19">
      <g>
       <use xlink:href="#m2a3149ab92" x="42.828125" y="438.601703" style="stroke: #000000; stroke-width: 0.8"/>
      </g>
     </g>
     <g id="text_19">
      <!-- 326.7 -->
      <g transform="translate(7.2 442.400922)scale(0.1 -0.1)">
       <use xlink:href="#DejaVuSans-33"/>
       <use xlink:href="#DejaVuSans-32" x="63.623047"/>
       <use xlink:href="#DejaVuSans-36" x="127.246094"/>
       <use xlink:href="#DejaVuSans-2e" x="190.869141"/>
       <use xlink:href="#DejaVuSans-37" x="222.65625"/>
      </g>
     </g>
    </g>
    <g id="ytick_14">
     <g id="line2d_20">
      <g>
       <use xlink:href="#m2a3149ab92" x="42.828125" y="382.151845" style="stroke: #000000; stroke-width: 0.8"/>
      </g>
     </g>
     <g id="text_20">
      <!-- 353.9 -->
      <g transform="translate(7.2 385.951063)scale(0.1 -0.1)">
       <use xlink:href="#DejaVuSans-33"/>
       <use xlink:href="#DejaVuSans-35" x="63.623047"/>
       <use xlink:href="#DejaVuSans-33" x="127.246094"/>
       <use xlink:href="#DejaVuSans-2e" x="190.869141"/>
       <use xlink:href="#DejaVuSans-39" x="222.65625"/>
      </g>
     </g>
    </g>
    <g id="ytick_15">
     <g id="line2d_21">
      <g>
       <use xlink:href="#m2a3149ab92" x="42.828125" y="325.701987" style="stroke: #000000; stroke-width: 0.8"/>
      </g>
     </g>
     <g id="text_21">
      <!-- 381.1 -->
      <g transform="translate(7.2 329.501205)scale(0.1 -0.1)">
       <use xlink:href="#DejaVuSans-33"/>
       <use xlink:href="#DejaVuSans-38" x="63.623047"/>
       <use xlink:href="#DejaVuSans-31" x="127.246094"/>
       <use xlink:href="#DejaVuSans-2e" x="190.869141"/>
       <use xlink:href="#DejaVuSans-31" x="222.65625"/>
      </g>
     </g>
    </g>
    <g id="ytick_16">
     <g id="line2d_22">
      <g>
       <use xlink:href="#m2a3149ab92" x="42.828125" y="269.252128" style="stroke: #000000; stroke-width: 0.8"/>
      </g>
     </g>
     <g id="text_22">
      <!-- 408.3 -->
      <g transform="translate(7.2 273.051347)scale(0.1 -0.1)">
       <use xlink:href="#DejaVuSans-34"/>
       <use xlink:href="#DejaVuSans-30" x="63.623047"/>
       <use xlink:href="#DejaVuSans-38" x="127.246094"/>
       <use xlink:href="#DejaVuSans-2e" x="190.869141"/>
       <use xlink:href="#DejaVuSans-33" x="222.65625"/>
      </g>
     </g>
    </g>
    <g id="ytick_17">
     <g id="line2d_23">
      <g>
       <use xlink:href="#m2a3149ab92" x="42.828125" y="212.80227" style="stroke: #000000; stroke-width: 0.8"/>
      </g>
     </g>
     <g id="text_23">
      <!-- 435.6 -->
      <g transform="translate(7.2 216.601489)scale(0.1 -0.1)">
       <use xlink:href="#DejaVuSans-34"/>
       <use xlink:href="#DejaVuSans-33" x="63.623047"/>
       <use xlink:href="#DejaVuSans-35" x="127.246094"/>
       <use xlink:href="#DejaVuSans-2e" x="190.869141"/>
       <use xlink:href="#DejaVuSans-36" x="222.65625"/>
      </g>
     </g>
    </g>
    <g id="ytick_18">
     <g id="line2d_24">
      <g>
       <use xlink:href="#m2a3149ab92" x="42.828125" y="156.352412" style="stroke: #000000; stroke-width: 0.8"/>
      </g>
     </g>
     <g id="text_24">
      <!-- 462.8 -->
      <g transform="translate(7.2 160.151631)scale(0.1 -0.1)">
       <use xlink:href="#DejaVuSans-34"/>
       <use xlink:href="#DejaVuSans-36" x="63.623047"/>
       <use xlink:href="#DejaVuSans-32" x="127.246094"/>
       <use xlink:href="#DejaVuSans-2e" x="190.869141"/>
       <use xlink:href="#DejaVuSans-38" x="222.65625"/>
      </g>
     </g>
    </g>
    <g id="ytick_19">
     <g id="line2d_25">
      <g>
       <use xlink:href="#m2a3149ab92" x="42.828125" y="99.902554" style="stroke: #000000; stroke-width: 0.8"/>
      </g>
     </g>
     <g id="text_25">
      <!-- 490.0 -->
      <g transform="translate(7.2 103.701773)scale(0.1 -0.1)">
       <use xlink:href="#DejaVuSans-34"/>
       <use xlink:href="#DejaVuSans-39" x="63.623047"/>
       <use xlink:href="#DejaVuSans-30" x="127.246094"/>
       <use xlink:href="#DejaVuSans-2e" x="190.869141"/>
       <use xlink:href="#DejaVuSans-30" x="222.65625"/>
      </g>
     </g>
    </g>
    <g id="ytick_20">
     <g id="line2d_26">
      <g>
       <use xlink:href="#m2a3149ab92" x="42.828125" y="43.452696" style="stroke: #000000; stroke-width: 0.8"/>
      </g>
     </g>
     <g id="text_26">
      <!-- 517.2 -->
      <g transform="translate(7.2 47.251915)scale(0.1 -0.1)">
       <use xlink:href="#DejaVuSans-35"/>
       <use xlink:href="#DejaVuSans-31" x="63.623047"/>
       <use xlink:href="#DejaVuSans-37" x="127.246094"/>
       <use xlink:href="#DejaVuSans-2e" x="190.869141"/>
       <use xlink:href="#DejaVuSans-32" x="222.65625"/>
      </g>
     </g>
    </g>
   </g>
   <g id="line2d_27">
    <path d="M 164.57358 412.324864 
L 189.675735 548.622393 
L 214.777891 209.153831 
L 239.880046 43.452696 
L 264.982202 57.470212 
L 290.084357 77.293799 
L 315.186513 82.622943 
L 340.288669 81.648353 
L 365.390824 83.556062 
L 390.49298 81.482465 
L 415.595135 81.876448 
L 440.697291 82.933983 
L 465.799446 83.369438 
L 490.901602 81.897184 
L 516.003758 82.685151 
L 541.105913 82.104544 
L 566.208069 81.959392 
L 591.310224 84.364765 
L 616.41238 80.196835 
L 641.514535 82.996191 
L 666.616691 82.000864 
L 691.718847 82.083808 
L 716.821002 82.374111 
L 741.923158 82.146016 
L 767.025313 82.954719 
L 792.127469 82.830303 
L 817.229625 82.083808 
L 842.33178 81.669088 
L 867.433936 82.685151 
L 892.536091 81.440993 
L 917.638247 85.256411 
L 942.740402 81.482465 
L 967.842558 80.777442 
L 992.944714 82.768095 
L 1018.046869 82.042336 
L 1043.149025 83.016927 
L 1068.25118 82.104544 
L 1093.353336 81.772768 
L 1118.455491 81.544673 
L 1143.557647 84.509916 
L 1168.659803 81.420257 
L 1193.761958 82.996191 
L 1218.864114 80.611554 
L 1243.966269 83.09987 
L 1269.068425 81.689824 
L 1294.17058 82.042336 
L 1319.272736 82.622943 
L 1344.374892 82.12528 
L 1369.477047 82.166752 
L 1394.579203 81.91792 
L 1419.681358 82.0216 
L 1444.783514 82.249696 
L 1469.88567 84.9039 
L 1494.987825 79.408868 
L 1520.089981 82.291168 
L 1545.192136 82.788831 
L 1570.294292 82.457055 
L 1595.396447 82.664415 
L 1620.498603 81.731296 
L 1645.600759 82.166752 
L 1670.702914 83.721949 
L 1695.80507 81.005537 
L 1720.907225 82.166752 
L 1746.009381 82.913247 
L 1771.111536 80.94333 
L 1796.213692 82.146016 
L 1821.315848 82.685151 
L 1846.418003 81.91792 
L 1871.520159 82.146016 
L 1896.622314 82.291168 
L 1921.72447 82.374111 
L 1946.826625 82.457055 
L 1971.928781 82.146016 
L 1997.030937 82.166752 
L 2022.133092 82.933983 
L 2047.235248 81.648353 
L 2072.337403 82.311904 
L 2097.439559 81.772768 
L 2122.541715 83.162078 
L 2147.64387 81.938656 
L 2172.746026 82.042336 
L 2197.848181 380.992813 
L 2222.950337 765.603582 
L 2248.052492 764.732671 
L 2273.154648 766.868476 
L 2298.256804 747.521816 
L 2323.358959 753.618191 
L 2348.461115 768.506617 
L 2373.56327 759.756038 
L 2398.665426 739.849507 
L 2423.767581 765.35475 
L 2448.869737 760.917252 
L 2473.971893 758.802184 
L 2499.074048 746.692377 
L 2524.176204 764.421631 
L 2549.278359 754.323214 
L 2574.380515 756.521227 
L 2599.48267 747.3974 
" clip-path="url(#p87dad25f63)" style="fill: none; stroke: #c7e9b4; stroke-width: 1.5; stroke-linecap: square"/>
    <defs>
     <path id="m3cb5e38b5b" d="M 0 1.5 
C 0.397805 1.5 0.77937 1.341951 1.06066 1.06066 
C 1.341951 0.77937 1.5 0.397805 1.5 0 
C 1.5 -0.397805 1.341951 -0.77937 1.06066 -1.06066 
C 0.77937 -1.341951 0.397805 -1.5 0 -1.5 
C -0.397805 -1.5 -0.77937 -1.341951 -1.06066 -1.06066 
C -1.341951 -0.77937 -1.5 -0.397805 -1.5 0 
C -1.5 0.397805 -1.341951 0.77937 -1.06066 1.06066 
C -0.77937 1.341951 -0.397805 1.5 0 1.5 
z
" style="stroke: #c7e9b4"/>
    </defs>
    <g clip-path="url(#p87dad25f63)">
     <use xlink:href="#m3cb5e38b5b" x="164.57358" y="412.324864" style="fill: #c7e9b4; stroke: #c7e9b4"/>
     <use xlink:href="#m3cb5e38b5b" x="189.675735" y="548.622393" style="fill: #c7e9b4; stroke: #c7e9b4"/>
     <use xlink:href="#m3cb5e38b5b" x="214.777891" y="209.153831" style="fill: #c7e9b4; stroke: #c7e9b4"/>
     <use xlink:href="#m3cb5e38b5b" x="239.880046" y="43.452696" style="fill: #c7e9b4; stroke: #c7e9b4"/>
     <use xlink:href="#m3cb5e38b5b" x="264.982202" y="57.470212" style="fill: #c7e9b4; stroke: #c7e9b4"/>
     <use xlink:href="#m3cb5e38b5b" x="290.084357" y="77.293799" style="fill: #c7e9b4; stroke: #c7e9b4"/>
     <use xlink:href="#m3cb5e38b5b" x="315.186513" y="82.622943" style="fill: #c7e9b4; stroke: #c7e9b4"/>
     <use xlink:href="#m3cb5e38b5b" x="340.288669" y="81.648353" style="fill: #c7e9b4; stroke: #c7e9b4"/>
     <use xlink:href="#m3cb5e38b5b" x="365.390824" y="83.556062" style="fill: #c7e9b4; stroke: #c7e9b4"/>
     <use xlink:href="#m3cb5e38b5b" x="390.49298" y="81.482465" style="fill: #c7e9b4; stroke: #c7e9b4"/>
     <use xlink:href="#m3cb5e38b5b" x="415.595135" y="81.876448" style="fill: #c7e9b4; stroke: #c7e9b4"/>
     <use xlink:href="#m3cb5e38b5b" x="440.697291" y="82.933983" style="fill: #c7e9b4; stroke: #c7e9b4"/>
     <use xlink:href="#m3cb5e38b5b" x="465.799446" y="83.369438" style="fill: #c7e9b4; stroke: #c7e9b4"/>
     <use xlink:href="#m3cb5e38b5b" x="490.901602" y="81.897184" style="fill: #c7e9b4; stroke: #c7e9b4"/>
     <use xlink:href="#m3cb5e38b5b" x="516.003758" y="82.685151" style="fill: #c7e9b4; stroke: #c7e9b4"/>
     <use xlink:href="#m3cb5e38b5b" x="541.105913" y="82.104544" style="fill: #c7e9b4; stroke: #c7e9b4"/>
     <use xlink:href="#m3cb5e38b5b" x="566.208069" y="81.959392" style="fill: #c7e9b4; stroke: #c7e9b4"/>
     <use xlink:href="#m3cb5e38b5b" x="591.310224" y="84.364765" style="fill: #c7e9b4; stroke: #c7e9b4"/>
     <use xlink:href="#m3cb5e38b5b" x="616.41238" y="80.196835" style="fill: #c7e9b4; stroke: #c7e9b4"/>
     <use xlink:href="#m3cb5e38b5b" x="641.514535" y="82.996191" style="fill: #c7e9b4; stroke: #c7e9b4"/>
     <use xlink:href="#m3cb5e38b5b" x="666.616691" y="82.000864" style="fill: #c7e9b4; stroke: #c7e9b4"/>
     <use xlink:href="#m3cb5e38b5b" x="691.718847" y="82.083808" style="fill: #c7e9b4; stroke: #c7e9b4"/>
     <use xlink:href="#m3cb5e38b5b" x="716.821002" y="82.374111" style="fill: #c7e9b4; stroke: #c7e9b4"/>
     <use xlink:href="#m3cb5e38b5b" x="741.923158" y="82.146016" style="fill: #c7e9b4; stroke: #c7e9b4"/>
     <use xlink:href="#m3cb5e38b5b" x="767.025313" y="82.954719" style="fill: #c7e9b4; stroke: #c7e9b4"/>
     <use xlink:href="#m3cb5e38b5b" x="792.127469" y="82.830303" style="fill: #c7e9b4; stroke: #c7e9b4"/>
     <use xlink:href="#m3cb5e38b5b" x="817.229625" y="82.083808" style="fill: #c7e9b4; stroke: #c7e9b4"/>
     <use xlink:href="#m3cb5e38b5b" x="842.33178" y="81.669088" style="fill: #c7e9b4; stroke: #c7e9b4"/>
     <use xlink:href="#m3cb5e38b5b" x="867.433936" y="82.685151" style="fill: #c7e9b4; stroke: #c7e9b4"/>
     <use xlink:href="#m3cb5e38b5b" x="892.536091" y="81.440993" style="fill: #c7e9b4; stroke: #c7e9b4"/>
     <use xlink:href="#m3cb5e38b5b" x="917.638247" y="85.256411" style="fill: #c7e9b4; stroke: #c7e9b4"/>
     <use xlink:href="#m3cb5e38b5b" x="942.740402" y="81.482465" style="fill: #c7e9b4; stroke: #c7e9b4"/>
     <use xlink:href="#m3cb5e38b5b" x="967.842558" y="80.777442" style="fill: #c7e9b4; stroke: #c7e9b4"/>
     <use xlink:href="#m3cb5e38b5b" x="992.944714" y="82.768095" style="fill: #c7e9b4; stroke: #c7e9b4"/>
     <use xlink:href="#m3cb5e38b5b" x="1018.046869" y="82.042336" style="fill: #c7e9b4; stroke: #c7e9b4"/>
     <use xlink:href="#m3cb5e38b5b" x="1043.149025" y="83.016927" style="fill: #c7e9b4; stroke: #c7e9b4"/>
     <use xlink:href="#m3cb5e38b5b" x="1068.25118" y="82.104544" style="fill: #c7e9b4; stroke: #c7e9b4"/>
     <use xlink:href="#m3cb5e38b5b" x="1093.353336" y="81.772768" style="fill: #c7e9b4; stroke: #c7e9b4"/>
     <use xlink:href="#m3cb5e38b5b" x="1118.455491" y="81.544673" style="fill: #c7e9b4; stroke: #c7e9b4"/>
     <use xlink:href="#m3cb5e38b5b" x="1143.557647" y="84.509916" style="fill: #c7e9b4; stroke: #c7e9b4"/>
     <use xlink:href="#m3cb5e38b5b" x="1168.659803" y="81.420257" style="fill: #c7e9b4; stroke: #c7e9b4"/>
     <use xlink:href="#m3cb5e38b5b" x="1193.761958" y="82.996191" style="fill: #c7e9b4; stroke: #c7e9b4"/>
     <use xlink:href="#m3cb5e38b5b" x="1218.864114" y="80.611554" style="fill: #c7e9b4; stroke: #c7e9b4"/>
     <use xlink:href="#m3cb5e38b5b" x="1243.966269" y="83.09987" style="fill: #c7e9b4; stroke: #c7e9b4"/>
     <use xlink:href="#m3cb5e38b5b" x="1269.068425" y="81.689824" style="fill: #c7e9b4; stroke: #c7e9b4"/>
     <use xlink:href="#m3cb5e38b5b" x="1294.17058" y="82.042336" style="fill: #c7e9b4; stroke: #c7e9b4"/>
     <use xlink:href="#m3cb5e38b5b" x="1319.272736" y="82.622943" style="fill: #c7e9b4; stroke: #c7e9b4"/>
     <use xlink:href="#m3cb5e38b5b" x="1344.374892" y="82.12528" style="fill: #c7e9b4; stroke: #c7e9b4"/>
     <use xlink:href="#m3cb5e38b5b" x="1369.477047" y="82.166752" style="fill: #c7e9b4; stroke: #c7e9b4"/>
     <use xlink:href="#m3cb5e38b5b" x="1394.579203" y="81.91792" style="fill: #c7e9b4; stroke: #c7e9b4"/>
     <use xlink:href="#m3cb5e38b5b" x="1419.681358" y="82.0216" style="fill: #c7e9b4; stroke: #c7e9b4"/>
     <use xlink:href="#m3cb5e38b5b" x="1444.783514" y="82.249696" style="fill: #c7e9b4; stroke: #c7e9b4"/>
     <use xlink:href="#m3cb5e38b5b" x="1469.88567" y="84.9039" style="fill: #c7e9b4; stroke: #c7e9b4"/>
     <use xlink:href="#m3cb5e38b5b" x="1494.987825" y="79.408868" style="fill: #c7e9b4; stroke: #c7e9b4"/>
     <use xlink:href="#m3cb5e38b5b" x="1520.089981" y="82.291168" style="fill: #c7e9b4; stroke: #c7e9b4"/>
     <use xlink:href="#m3cb5e38b5b" x="1545.192136" y="82.788831" style="fill: #c7e9b4; stroke: #c7e9b4"/>
     <use xlink:href="#m3cb5e38b5b" x="1570.294292" y="82.457055" style="fill: #c7e9b4; stroke: #c7e9b4"/>
     <use xlink:href="#m3cb5e38b5b" x="1595.396447" y="82.664415" style="fill: #c7e9b4; stroke: #c7e9b4"/>
     <use xlink:href="#m3cb5e38b5b" x="1620.498603" y="81.731296" style="fill: #c7e9b4; stroke: #c7e9b4"/>
     <use xlink:href="#m3cb5e38b5b" x="1645.600759" y="82.166752" style="fill: #c7e9b4; stroke: #c7e9b4"/>
     <use xlink:href="#m3cb5e38b5b" x="1670.702914" y="83.721949" style="fill: #c7e9b4; stroke: #c7e9b4"/>
     <use xlink:href="#m3cb5e38b5b" x="1695.80507" y="81.005537" style="fill: #c7e9b4; stroke: #c7e9b4"/>
     <use xlink:href="#m3cb5e38b5b" x="1720.907225" y="82.166752" style="fill: #c7e9b4; stroke: #c7e9b4"/>
     <use xlink:href="#m3cb5e38b5b" x="1746.009381" y="82.913247" style="fill: #c7e9b4; stroke: #c7e9b4"/>
     <use xlink:href="#m3cb5e38b5b" x="1771.111536" y="80.94333" style="fill: #c7e9b4; stroke: #c7e9b4"/>
     <use xlink:href="#m3cb5e38b5b" x="1796.213692" y="82.146016" style="fill: #c7e9b4; stroke: #c7e9b4"/>
     <use xlink:href="#m3cb5e38b5b" x="1821.315848" y="82.685151" style="fill: #c7e9b4; stroke: #c7e9b4"/>
     <use xlink:href="#m3cb5e38b5b" x="1846.418003" y="81.91792" style="fill: #c7e9b4; stroke: #c7e9b4"/>
     <use xlink:href="#m3cb5e38b5b" x="1871.520159" y="82.146016" style="fill: #c7e9b4; stroke: #c7e9b4"/>
     <use xlink:href="#m3cb5e38b5b" x="1896.622314" y="82.291168" style="fill: #c7e9b4; stroke: #c7e9b4"/>
     <use xlink:href="#m3cb5e38b5b" x="1921.72447" y="82.374111" style="fill: #c7e9b4; stroke: #c7e9b4"/>
     <use xlink:href="#m3cb5e38b5b" x="1946.826625" y="82.457055" style="fill: #c7e9b4; stroke: #c7e9b4"/>
     <use xlink:href="#m3cb5e38b5b" x="1971.928781" y="82.146016" style="fill: #c7e9b4; stroke: #c7e9b4"/>
     <use xlink:href="#m3cb5e38b5b" x="1997.030937" y="82.166752" style="fill: #c7e9b4; stroke: #c7e9b4"/>
     <use xlink:href="#m3cb5e38b5b" x="2022.133092" y="82.933983" style="fill: #c7e9b4; stroke: #c7e9b4"/>
     <use xlink:href="#m3cb5e38b5b" x="2047.235248" y="81.648353" style="fill: #c7e9b4; stroke: #c7e9b4"/>
     <use xlink:href="#m3cb5e38b5b" x="2072.337403" y="82.311904" style="fill: #c7e9b4; stroke: #c7e9b4"/>
     <use xlink:href="#m3cb5e38b5b" x="2097.439559" y="81.772768" style="fill: #c7e9b4; stroke: #c7e9b4"/>
     <use xlink:href="#m3cb5e38b5b" x="2122.541715" y="83.162078" style="fill: #c7e9b4; stroke: #c7e9b4"/>
     <use xlink:href="#m3cb5e38b5b" x="2147.64387" y="81.938656" style="fill: #c7e9b4; stroke: #c7e9b4"/>
     <use xlink:href="#m3cb5e38b5b" x="2172.746026" y="82.042336" style="fill: #c7e9b4; stroke: #c7e9b4"/>
     <use xlink:href="#m3cb5e38b5b" x="2197.848181" y="380.992813" style="fill: #c7e9b4; stroke: #c7e9b4"/>
     <use xlink:href="#m3cb5e38b5b" x="2222.950337" y="765.603582" style="fill: #c7e9b4; stroke: #c7e9b4"/>
     <use xlink:href="#m3cb5e38b5b" x="2248.052492" y="764.732671" style="fill: #c7e9b4; stroke: #c7e9b4"/>
     <use xlink:href="#m3cb5e38b5b" x="2273.154648" y="766.868476" style="fill: #c7e9b4; stroke: #c7e9b4"/>
     <use xlink:href="#m3cb5e38b5b" x="2298.256804" y="747.521816" style="fill: #c7e9b4; stroke: #c7e9b4"/>
     <use xlink:href="#m3cb5e38b5b" x="2323.358959" y="753.618191" style="fill: #c7e9b4; stroke: #c7e9b4"/>
     <use xlink:href="#m3cb5e38b5b" x="2348.461115" y="768.506617" style="fill: #c7e9b4; stroke: #c7e9b4"/>
     <use xlink:href="#m3cb5e38b5b" x="2373.56327" y="759.756038" style="fill: #c7e9b4; stroke: #c7e9b4"/>
     <use xlink:href="#m3cb5e38b5b" x="2398.665426" y="739.849507" style="fill: #c7e9b4; stroke: #c7e9b4"/>
     <use xlink:href="#m3cb5e38b5b" x="2423.767581" y="765.35475" style="fill: #c7e9b4; stroke: #c7e9b4"/>
     <use xlink:href="#m3cb5e38b5b" x="2448.869737" y="760.917252" style="fill: #c7e9b4; stroke: #c7e9b4"/>
     <use xlink:href="#m3cb5e38b5b" x="2473.971893" y="758.802184" style="fill: #c7e9b4; stroke: #c7e9b4"/>
     <use xlink:href="#m3cb5e38b5b" x="2499.074048" y="746.692377" style="fill: #c7e9b4; stroke: #c7e9b4"/>
     <use xlink:href="#m3cb5e38b5b" x="2524.176204" y="764.421631" style="fill: #c7e9b4; stroke: #c7e9b4"/>
     <use xlink:href="#m3cb5e38b5b" x="2549.278359" y="754.323214" style="fill: #c7e9b4; stroke: #c7e9b4"/>
     <use xlink:href="#m3cb5e38b5b" x="2574.380515" y="756.521227" style="fill: #c7e9b4; stroke: #c7e9b4"/>
     <use xlink:href="#m3cb5e38b5b" x="2599.48267" y="747.3974" style="fill: #c7e9b4; stroke: #c7e9b4"/>
    </g>
   </g>
   <g id="patch_3">
    <path d="M 42.828125 1116 
L 42.828125 7.2 
" style="fill: none; stroke: #000000; stroke-width: 0.8; stroke-linejoin: miter; stroke-linecap: square"/>
   </g>
   <g id="patch_4">
    <path d="M 2721.228125 1116 
L 2721.228125 7.2 
" style="fill: none; stroke: #000000; stroke-width: 0.8; stroke-linejoin: miter; stroke-linecap: square"/>
   </g>
   <g id="patch_5">
    <path d="M 42.828125 1116 
L 2721.228125 1116 
" style="fill: none; stroke: #000000; stroke-width: 0.8; stroke-linejoin: miter; stroke-linecap: square"/>
   </g>
   <g id="patch_6">
    <path d="M 42.828125 7.2 
L 2721.228125 7.2 
" style="fill: none; stroke: #000000; stroke-width: 0.8; stroke-linejoin: miter; stroke-linecap: square"/>
   </g>
  </g>
 </g>
 <defs>
  <clipPath id="p87dad25f63">
   <rect x="42.828125" y="7.2" width="2678.4" height="1108.8"/>
  </clipPath>
 </defs>
</svg>
