<?xml version="1.0" encoding="utf-8" standalone="no"?>
<!DOCTYPE svg PUBLIC "-//W3C//DTD SVG 1.1//EN"
  "http://www.w3.org/Graphics/SVG/1.1/DTD/svg11.dtd">
<svg xmlns:xlink="http://www.w3.org/1999/xlink" width="500.565625pt" height="488.27625pt" viewBox="0 0 500.565625 488.27625" xmlns="http://www.w3.org/2000/svg" version="1.1">
 <metadata>
  <rdf:RDF xmlns:dc="http://purl.org/dc/elements/1.1/" xmlns:cc="http://creativecommons.org/ns#" xmlns:rdf="http://www.w3.org/1999/02/22-rdf-syntax-ns#">
   <cc:Work>
    <dc:type rdf:resource="http://purl.org/dc/dcmitype/StillImage"/>
    <dc:date>2022-02-03T11:35:16.272814</dc:date>
    <dc:format>image/svg+xml</dc:format>
    <dc:creator>
     <cc:Agent>
      <dc:title>Matplotlib v3.5.1, https://matplotlib.org/</dc:title>
     </cc:Agent>
    </dc:creator>
   </cc:Work>
  </rdf:RDF>
 </metadata>
 <defs>
  <style type="text/css">*{stroke-linejoin: round; stroke-linecap: butt}</style>
 </defs>
 <g id="figure_1">
  <g id="patch_1">
   <path d="M 0 488.27625 
L 500.565625 488.27625 
L 500.565625 0 
L 0 0 
z
" style="fill: #ffffff"/>
  </g>
  <g id="axes_1">
   <g id="patch_2">
    <path d="M 46.965625 450.72 
L 493.365625 450.72 
L 493.365625 7.2 
L 46.965625 7.2 
z
" style="fill: #ffffff"/>
   </g>
   <g id="matplotlib.axis_1">
    <g id="xtick_1">
     <g id="line2d_1">
      <path d="M 67.256534 450.72 
L 67.256534 7.2 
" clip-path="url(#pba7c1b84dd)" style="fill: none; stroke-dasharray: 0.8,1.32; stroke-dashoffset: 0; stroke: #b0b0b0; stroke-width: 0.8"/>
     </g>
     <g id="line2d_2">
      <defs>
       <path id="mdd79094d8c" d="M 0 0 
L 0 3.5 
" style="stroke: #000000; stroke-width: 0.8"/>
      </defs>
      <g>
       <use xlink:href="#mdd79094d8c" x="67.256534" y="450.72" style="stroke: #000000; stroke-width: 0.8"/>
      </g>
     </g>
     <g id="text_1">
      <!-- 16 -->
      <g transform="translate(60.894034 465.318437)scale(0.1 -0.1)">
       <defs>
        <path id="DejaVuSans-31" d="M 794 531 
L 1825 531 
L 1825 4091 
L 703 3866 
L 703 4441 
L 1819 4666 
L 2450 4666 
L 2450 531 
L 3481 531 
L 3481 0 
L 794 0 
L 794 531 
z
" transform="scale(0.015625)"/>
        <path id="DejaVuSans-36" d="M 2113 2584 
Q 1688 2584 1439 2293 
Q 1191 2003 1191 1497 
Q 1191 994 1439 701 
Q 1688 409 2113 409 
Q 2538 409 2786 701 
Q 3034 994 3034 1497 
Q 3034 2003 2786 2293 
Q 2538 2584 2113 2584 
z
M 3366 4563 
L 3366 3988 
Q 3128 4100 2886 4159 
Q 2644 4219 2406 4219 
Q 1781 4219 1451 3797 
Q 1122 3375 1075 2522 
Q 1259 2794 1537 2939 
Q 1816 3084 2150 3084 
Q 2853 3084 3261 2657 
Q 3669 2231 3669 1497 
Q 3669 778 3244 343 
Q 2819 -91 2113 -91 
Q 1303 -91 875 529 
Q 447 1150 447 2328 
Q 447 3434 972 4092 
Q 1497 4750 2381 4750 
Q 2619 4750 2861 4703 
Q 3103 4656 3366 4563 
z
" transform="scale(0.015625)"/>
       </defs>
       <use xlink:href="#DejaVuSans-31"/>
       <use xlink:href="#DejaVuSans-36" x="63.623047"/>
      </g>
     </g>
    </g>
    <g id="xtick_2">
     <g id="line2d_3">
      <path d="M 168.71108 450.72 
L 168.71108 7.2 
" clip-path="url(#pba7c1b84dd)" style="fill: none; stroke-dasharray: 0.8,1.32; stroke-dashoffset: 0; stroke: #b0b0b0; stroke-width: 0.8"/>
     </g>
     <g id="line2d_4">
      <g>
       <use xlink:href="#mdd79094d8c" x="168.71108" y="450.72" style="stroke: #000000; stroke-width: 0.8"/>
      </g>
     </g>
     <g id="text_2">
      <!-- 32 -->
      <g transform="translate(162.34858 465.318437)scale(0.1 -0.1)">
       <defs>
        <path id="DejaVuSans-33" d="M 2597 2516 
Q 3050 2419 3304 2112 
Q 3559 1806 3559 1356 
Q 3559 666 3084 287 
Q 2609 -91 1734 -91 
Q 1441 -91 1130 -33 
Q 819 25 488 141 
L 488 750 
Q 750 597 1062 519 
Q 1375 441 1716 441 
Q 2309 441 2620 675 
Q 2931 909 2931 1356 
Q 2931 1769 2642 2001 
Q 2353 2234 1838 2234 
L 1294 2234 
L 1294 2753 
L 1863 2753 
Q 2328 2753 2575 2939 
Q 2822 3125 2822 3475 
Q 2822 3834 2567 4026 
Q 2313 4219 1838 4219 
Q 1578 4219 1281 4162 
Q 984 4106 628 3988 
L 628 4550 
Q 988 4650 1302 4700 
Q 1616 4750 1894 4750 
Q 2613 4750 3031 4423 
Q 3450 4097 3450 3541 
Q 3450 3153 3228 2886 
Q 3006 2619 2597 2516 
z
" transform="scale(0.015625)"/>
        <path id="DejaVuSans-32" d="M 1228 531 
L 3431 531 
L 3431 0 
L 469 0 
L 469 531 
Q 828 903 1448 1529 
Q 2069 2156 2228 2338 
Q 2531 2678 2651 2914 
Q 2772 3150 2772 3378 
Q 2772 3750 2511 3984 
Q 2250 4219 1831 4219 
Q 1534 4219 1204 4116 
Q 875 4013 500 3803 
L 500 4441 
Q 881 4594 1212 4672 
Q 1544 4750 1819 4750 
Q 2544 4750 2975 4387 
Q 3406 4025 3406 3419 
Q 3406 3131 3298 2873 
Q 3191 2616 2906 2266 
Q 2828 2175 2409 1742 
Q 1991 1309 1228 531 
z
" transform="scale(0.015625)"/>
       </defs>
       <use xlink:href="#DejaVuSans-33"/>
       <use xlink:href="#DejaVuSans-32" x="63.623047"/>
      </g>
     </g>
    </g>
    <g id="xtick_3">
     <g id="line2d_5">
      <path d="M 270.165625 450.72 
L 270.165625 7.2 
" clip-path="url(#pba7c1b84dd)" style="fill: none; stroke-dasharray: 0.8,1.32; stroke-dashoffset: 0; stroke: #b0b0b0; stroke-width: 0.8"/>
     </g>
     <g id="line2d_6">
      <g>
       <use xlink:href="#mdd79094d8c" x="270.165625" y="450.72" style="stroke: #000000; stroke-width: 0.8"/>
      </g>
     </g>
     <g id="text_3">
      <!-- 64 -->
      <g transform="translate(263.803125 465.318437)scale(0.1 -0.1)">
       <defs>
        <path id="DejaVuSans-34" d="M 2419 4116 
L 825 1625 
L 2419 1625 
L 2419 4116 
z
M 2253 4666 
L 3047 4666 
L 3047 1625 
L 3713 1625 
L 3713 1100 
L 3047 1100 
L 3047 0 
L 2419 0 
L 2419 1100 
L 313 1100 
L 313 1709 
L 2253 4666 
z
" transform="scale(0.015625)"/>
       </defs>
       <use xlink:href="#DejaVuSans-36"/>
       <use xlink:href="#DejaVuSans-34" x="63.623047"/>
      </g>
     </g>
    </g>
    <g id="xtick_4">
     <g id="line2d_7">
      <path d="M 371.62017 450.72 
L 371.62017 7.2 
" clip-path="url(#pba7c1b84dd)" style="fill: none; stroke-dasharray: 0.8,1.32; stroke-dashoffset: 0; stroke: #b0b0b0; stroke-width: 0.8"/>
     </g>
     <g id="line2d_8">
      <g>
       <use xlink:href="#mdd79094d8c" x="371.62017" y="450.72" style="stroke: #000000; stroke-width: 0.8"/>
      </g>
     </g>
     <g id="text_4">
      <!-- 128 -->
      <g transform="translate(362.07642 465.318437)scale(0.1 -0.1)">
       <defs>
        <path id="DejaVuSans-38" d="M 2034 2216 
Q 1584 2216 1326 1975 
Q 1069 1734 1069 1313 
Q 1069 891 1326 650 
Q 1584 409 2034 409 
Q 2484 409 2743 651 
Q 3003 894 3003 1313 
Q 3003 1734 2745 1975 
Q 2488 2216 2034 2216 
z
M 1403 2484 
Q 997 2584 770 2862 
Q 544 3141 544 3541 
Q 544 4100 942 4425 
Q 1341 4750 2034 4750 
Q 2731 4750 3128 4425 
Q 3525 4100 3525 3541 
Q 3525 3141 3298 2862 
Q 3072 2584 2669 2484 
Q 3125 2378 3379 2068 
Q 3634 1759 3634 1313 
Q 3634 634 3220 271 
Q 2806 -91 2034 -91 
Q 1263 -91 848 271 
Q 434 634 434 1313 
Q 434 1759 690 2068 
Q 947 2378 1403 2484 
z
M 1172 3481 
Q 1172 3119 1398 2916 
Q 1625 2713 2034 2713 
Q 2441 2713 2670 2916 
Q 2900 3119 2900 3481 
Q 2900 3844 2670 4047 
Q 2441 4250 2034 4250 
Q 1625 4250 1398 4047 
Q 1172 3844 1172 3481 
z
" transform="scale(0.015625)"/>
       </defs>
       <use xlink:href="#DejaVuSans-31"/>
       <use xlink:href="#DejaVuSans-32" x="63.623047"/>
       <use xlink:href="#DejaVuSans-38" x="127.246094"/>
      </g>
     </g>
    </g>
    <g id="xtick_5">
     <g id="line2d_9">
      <path d="M 473.074716 450.72 
L 473.074716 7.2 
" clip-path="url(#pba7c1b84dd)" style="fill: none; stroke-dasharray: 0.8,1.32; stroke-dashoffset: 0; stroke: #b0b0b0; stroke-width: 0.8"/>
     </g>
     <g id="line2d_10">
      <g>
       <use xlink:href="#mdd79094d8c" x="473.074716" y="450.72" style="stroke: #000000; stroke-width: 0.8"/>
      </g>
     </g>
     <g id="text_5">
      <!-- 256 -->
      <g transform="translate(463.530966 465.318437)scale(0.1 -0.1)">
       <defs>
        <path id="DejaVuSans-35" d="M 691 4666 
L 3169 4666 
L 3169 4134 
L 1269 4134 
L 1269 2991 
Q 1406 3038 1543 3061 
Q 1681 3084 1819 3084 
Q 2600 3084 3056 2656 
Q 3513 2228 3513 1497 
Q 3513 744 3044 326 
Q 2575 -91 1722 -91 
Q 1428 -91 1123 -41 
Q 819 9 494 109 
L 494 744 
Q 775 591 1075 516 
Q 1375 441 1709 441 
Q 2250 441 2565 725 
Q 2881 1009 2881 1497 
Q 2881 1984 2565 2268 
Q 2250 2553 1709 2553 
Q 1456 2553 1204 2497 
Q 953 2441 691 2322 
L 691 4666 
z
" transform="scale(0.015625)"/>
       </defs>
       <use xlink:href="#DejaVuSans-32"/>
       <use xlink:href="#DejaVuSans-35" x="63.623047"/>
       <use xlink:href="#DejaVuSans-36" x="127.246094"/>
      </g>
     </g>
    </g>
    <g id="text_6">
     <!-- Problem Size -->
     <g transform="translate(237.872656 478.996562)scale(0.1 -0.1)">
      <defs>
       <path id="DejaVuSans-50" d="M 1259 4147 
L 1259 2394 
L 2053 2394 
Q 2494 2394 2734 2622 
Q 2975 2850 2975 3272 
Q 2975 3691 2734 3919 
Q 2494 4147 2053 4147 
L 1259 4147 
z
M 628 4666 
L 2053 4666 
Q 2838 4666 3239 4311 
Q 3641 3956 3641 3272 
Q 3641 2581 3239 2228 
Q 2838 1875 2053 1875 
L 1259 1875 
L 1259 0 
L 628 0 
L 628 4666 
z
" transform="scale(0.015625)"/>
       <path id="DejaVuSans-72" d="M 2631 2963 
Q 2534 3019 2420 3045 
Q 2306 3072 2169 3072 
Q 1681 3072 1420 2755 
Q 1159 2438 1159 1844 
L 1159 0 
L 581 0 
L 581 3500 
L 1159 3500 
L 1159 2956 
Q 1341 3275 1631 3429 
Q 1922 3584 2338 3584 
Q 2397 3584 2469 3576 
Q 2541 3569 2628 3553 
L 2631 2963 
z
" transform="scale(0.015625)"/>
       <path id="DejaVuSans-6f" d="M 1959 3097 
Q 1497 3097 1228 2736 
Q 959 2375 959 1747 
Q 959 1119 1226 758 
Q 1494 397 1959 397 
Q 2419 397 2687 759 
Q 2956 1122 2956 1747 
Q 2956 2369 2687 2733 
Q 2419 3097 1959 3097 
z
M 1959 3584 
Q 2709 3584 3137 3096 
Q 3566 2609 3566 1747 
Q 3566 888 3137 398 
Q 2709 -91 1959 -91 
Q 1206 -91 779 398 
Q 353 888 353 1747 
Q 353 2609 779 3096 
Q 1206 3584 1959 3584 
z
" transform="scale(0.015625)"/>
       <path id="DejaVuSans-62" d="M 3116 1747 
Q 3116 2381 2855 2742 
Q 2594 3103 2138 3103 
Q 1681 3103 1420 2742 
Q 1159 2381 1159 1747 
Q 1159 1113 1420 752 
Q 1681 391 2138 391 
Q 2594 391 2855 752 
Q 3116 1113 3116 1747 
z
M 1159 2969 
Q 1341 3281 1617 3432 
Q 1894 3584 2278 3584 
Q 2916 3584 3314 3078 
Q 3713 2572 3713 1747 
Q 3713 922 3314 415 
Q 2916 -91 2278 -91 
Q 1894 -91 1617 61 
Q 1341 213 1159 525 
L 1159 0 
L 581 0 
L 581 4863 
L 1159 4863 
L 1159 2969 
z
" transform="scale(0.015625)"/>
       <path id="DejaVuSans-6c" d="M 603 4863 
L 1178 4863 
L 1178 0 
L 603 0 
L 603 4863 
z
" transform="scale(0.015625)"/>
       <path id="DejaVuSans-65" d="M 3597 1894 
L 3597 1613 
L 953 1613 
Q 991 1019 1311 708 
Q 1631 397 2203 397 
Q 2534 397 2845 478 
Q 3156 559 3463 722 
L 3463 178 
Q 3153 47 2828 -22 
Q 2503 -91 2169 -91 
Q 1331 -91 842 396 
Q 353 884 353 1716 
Q 353 2575 817 3079 
Q 1281 3584 2069 3584 
Q 2775 3584 3186 3129 
Q 3597 2675 3597 1894 
z
M 3022 2063 
Q 3016 2534 2758 2815 
Q 2500 3097 2075 3097 
Q 1594 3097 1305 2825 
Q 1016 2553 972 2059 
L 3022 2063 
z
" transform="scale(0.015625)"/>
       <path id="DejaVuSans-6d" d="M 3328 2828 
Q 3544 3216 3844 3400 
Q 4144 3584 4550 3584 
Q 5097 3584 5394 3201 
Q 5691 2819 5691 2113 
L 5691 0 
L 5113 0 
L 5113 2094 
Q 5113 2597 4934 2840 
Q 4756 3084 4391 3084 
Q 3944 3084 3684 2787 
Q 3425 2491 3425 1978 
L 3425 0 
L 2847 0 
L 2847 2094 
Q 2847 2600 2669 2842 
Q 2491 3084 2119 3084 
Q 1678 3084 1418 2786 
Q 1159 2488 1159 1978 
L 1159 0 
L 581 0 
L 581 3500 
L 1159 3500 
L 1159 2956 
Q 1356 3278 1631 3431 
Q 1906 3584 2284 3584 
Q 2666 3584 2933 3390 
Q 3200 3197 3328 2828 
z
" transform="scale(0.015625)"/>
       <path id="DejaVuSans-20" transform="scale(0.015625)"/>
       <path id="DejaVuSans-53" d="M 3425 4513 
L 3425 3897 
Q 3066 4069 2747 4153 
Q 2428 4238 2131 4238 
Q 1616 4238 1336 4038 
Q 1056 3838 1056 3469 
Q 1056 3159 1242 3001 
Q 1428 2844 1947 2747 
L 2328 2669 
Q 3034 2534 3370 2195 
Q 3706 1856 3706 1288 
Q 3706 609 3251 259 
Q 2797 -91 1919 -91 
Q 1588 -91 1214 -16 
Q 841 59 441 206 
L 441 856 
Q 825 641 1194 531 
Q 1563 422 1919 422 
Q 2459 422 2753 634 
Q 3047 847 3047 1241 
Q 3047 1584 2836 1778 
Q 2625 1972 2144 2069 
L 1759 2144 
Q 1053 2284 737 2584 
Q 422 2884 422 3419 
Q 422 4038 858 4394 
Q 1294 4750 2059 4750 
Q 2388 4750 2728 4690 
Q 3069 4631 3425 4513 
z
" transform="scale(0.015625)"/>
       <path id="DejaVuSans-69" d="M 603 3500 
L 1178 3500 
L 1178 0 
L 603 0 
L 603 3500 
z
M 603 4863 
L 1178 4863 
L 1178 4134 
L 603 4134 
L 603 4863 
z
" transform="scale(0.015625)"/>
       <path id="DejaVuSans-7a" d="M 353 3500 
L 3084 3500 
L 3084 2975 
L 922 459 
L 3084 459 
L 3084 0 
L 275 0 
L 275 525 
L 2438 3041 
L 353 3041 
L 353 3500 
z
" transform="scale(0.015625)"/>
      </defs>
      <use xlink:href="#DejaVuSans-50"/>
      <use xlink:href="#DejaVuSans-72" x="58.552734"/>
      <use xlink:href="#DejaVuSans-6f" x="97.416016"/>
      <use xlink:href="#DejaVuSans-62" x="158.597656"/>
      <use xlink:href="#DejaVuSans-6c" x="222.074219"/>
      <use xlink:href="#DejaVuSans-65" x="249.857422"/>
      <use xlink:href="#DejaVuSans-6d" x="311.380859"/>
      <use xlink:href="#DejaVuSans-20" x="408.792969"/>
      <use xlink:href="#DejaVuSans-53" x="440.580078"/>
      <use xlink:href="#DejaVuSans-69" x="504.056641"/>
      <use xlink:href="#DejaVuSans-7a" x="531.839844"/>
      <use xlink:href="#DejaVuSans-65" x="584.330078"/>
     </g>
    </g>
   </g>
   <g id="matplotlib.axis_2">
    <g id="ytick_1">
     <g id="line2d_11">
      <path d="M 46.965625 436.172308 
L 493.365625 436.172308 
" clip-path="url(#pba7c1b84dd)" style="fill: none; stroke-dasharray: 0.8,1.32; stroke-dashoffset: 0; stroke: #b0b0b0; stroke-width: 0.8"/>
     </g>
     <g id="line2d_12">
      <defs>
       <path id="mb719e192f8" d="M 0 0 
L -3.5 0 
" style="stroke: #000000; stroke-width: 0.8"/>
      </defs>
      <g>
       <use xlink:href="#mb719e192f8" x="46.965625" y="436.172308" style="stroke: #000000; stroke-width: 0.8"/>
      </g>
     </g>
     <g id="text_7">
      <!-- 0 -->
      <g transform="translate(33.603125 439.971526)scale(0.1 -0.1)">
       <defs>
        <path id="DejaVuSans-30" d="M 2034 4250 
Q 1547 4250 1301 3770 
Q 1056 3291 1056 2328 
Q 1056 1369 1301 889 
Q 1547 409 2034 409 
Q 2525 409 2770 889 
Q 3016 1369 3016 2328 
Q 3016 3291 2770 3770 
Q 2525 4250 2034 4250 
z
M 2034 4750 
Q 2819 4750 3233 4129 
Q 3647 3509 3647 2328 
Q 3647 1150 3233 529 
Q 2819 -91 2034 -91 
Q 1250 -91 836 529 
Q 422 1150 422 2328 
Q 422 3509 836 4129 
Q 1250 4750 2034 4750 
z
" transform="scale(0.015625)"/>
       </defs>
       <use xlink:href="#DejaVuSans-30"/>
      </g>
     </g>
    </g>
    <g id="ytick_2">
     <g id="line2d_13">
      <path d="M 46.965625 377.095385 
L 493.365625 377.095385 
" clip-path="url(#pba7c1b84dd)" style="fill: none; stroke-dasharray: 0.8,1.32; stroke-dashoffset: 0; stroke: #b0b0b0; stroke-width: 0.8"/>
     </g>
     <g id="line2d_14">
      <g>
       <use xlink:href="#mb719e192f8" x="46.965625" y="377.095385" style="stroke: #000000; stroke-width: 0.8"/>
      </g>
     </g>
     <g id="text_8">
      <!-- 20 -->
      <g transform="translate(27.240625 380.894603)scale(0.1 -0.1)">
       <use xlink:href="#DejaVuSans-32"/>
       <use xlink:href="#DejaVuSans-30" x="63.623047"/>
      </g>
     </g>
    </g>
    <g id="ytick_3">
     <g id="line2d_15">
      <path d="M 46.965625 318.018462 
L 493.365625 318.018462 
" clip-path="url(#pba7c1b84dd)" style="fill: none; stroke-dasharray: 0.8,1.32; stroke-dashoffset: 0; stroke: #b0b0b0; stroke-width: 0.8"/>
     </g>
     <g id="line2d_16">
      <g>
       <use xlink:href="#mb719e192f8" x="46.965625" y="318.018462" style="stroke: #000000; stroke-width: 0.8"/>
      </g>
     </g>
     <g id="text_9">
      <!-- 40 -->
      <g transform="translate(27.240625 321.81768)scale(0.1 -0.1)">
       <use xlink:href="#DejaVuSans-34"/>
       <use xlink:href="#DejaVuSans-30" x="63.623047"/>
      </g>
     </g>
    </g>
    <g id="ytick_4">
     <g id="line2d_17">
      <path d="M 46.965625 258.941538 
L 493.365625 258.941538 
" clip-path="url(#pba7c1b84dd)" style="fill: none; stroke-dasharray: 0.8,1.32; stroke-dashoffset: 0; stroke: #b0b0b0; stroke-width: 0.8"/>
     </g>
     <g id="line2d_18">
      <g>
       <use xlink:href="#mb719e192f8" x="46.965625" y="258.941538" style="stroke: #000000; stroke-width: 0.8"/>
      </g>
     </g>
     <g id="text_10">
      <!-- 60 -->
      <g transform="translate(27.240625 262.740757)scale(0.1 -0.1)">
       <use xlink:href="#DejaVuSans-36"/>
       <use xlink:href="#DejaVuSans-30" x="63.623047"/>
      </g>
     </g>
    </g>
    <g id="ytick_5">
     <g id="line2d_19">
      <path d="M 46.965625 199.864615 
L 493.365625 199.864615 
" clip-path="url(#pba7c1b84dd)" style="fill: none; stroke-dasharray: 0.8,1.32; stroke-dashoffset: 0; stroke: #b0b0b0; stroke-width: 0.8"/>
     </g>
     <g id="line2d_20">
      <g>
       <use xlink:href="#mb719e192f8" x="46.965625" y="199.864615" style="stroke: #000000; stroke-width: 0.8"/>
      </g>
     </g>
     <g id="text_11">
      <!-- 80 -->
      <g transform="translate(27.240625 203.663834)scale(0.1 -0.1)">
       <use xlink:href="#DejaVuSans-38"/>
       <use xlink:href="#DejaVuSans-30" x="63.623047"/>
      </g>
     </g>
    </g>
    <g id="ytick_6">
     <g id="line2d_21">
      <path d="M 46.965625 140.787692 
L 493.365625 140.787692 
" clip-path="url(#pba7c1b84dd)" style="fill: none; stroke-dasharray: 0.8,1.32; stroke-dashoffset: 0; stroke: #b0b0b0; stroke-width: 0.8"/>
     </g>
     <g id="line2d_22">
      <g>
       <use xlink:href="#mb719e192f8" x="46.965625" y="140.787692" style="stroke: #000000; stroke-width: 0.8"/>
      </g>
     </g>
     <g id="text_12">
      <!-- 100 -->
      <g transform="translate(20.878125 144.586911)scale(0.1 -0.1)">
       <use xlink:href="#DejaVuSans-31"/>
       <use xlink:href="#DejaVuSans-30" x="63.623047"/>
       <use xlink:href="#DejaVuSans-30" x="127.246094"/>
      </g>
     </g>
    </g>
    <g id="ytick_7">
     <g id="line2d_23">
      <path d="M 46.965625 81.710769 
L 493.365625 81.710769 
" clip-path="url(#pba7c1b84dd)" style="fill: none; stroke-dasharray: 0.8,1.32; stroke-dashoffset: 0; stroke: #b0b0b0; stroke-width: 0.8"/>
     </g>
     <g id="line2d_24">
      <g>
       <use xlink:href="#mb719e192f8" x="46.965625" y="81.710769" style="stroke: #000000; stroke-width: 0.8"/>
      </g>
     </g>
     <g id="text_13">
      <!-- 120 -->
      <g transform="translate(20.878125 85.509988)scale(0.1 -0.1)">
       <use xlink:href="#DejaVuSans-31"/>
       <use xlink:href="#DejaVuSans-32" x="63.623047"/>
       <use xlink:href="#DejaVuSans-30" x="127.246094"/>
      </g>
     </g>
    </g>
    <g id="ytick_8">
     <g id="line2d_25">
      <path d="M 46.965625 22.633846 
L 493.365625 22.633846 
" clip-path="url(#pba7c1b84dd)" style="fill: none; stroke-dasharray: 0.8,1.32; stroke-dashoffset: 0; stroke: #b0b0b0; stroke-width: 0.8"/>
     </g>
     <g id="line2d_26">
      <g>
       <use xlink:href="#mb719e192f8" x="46.965625" y="22.633846" style="stroke: #000000; stroke-width: 0.8"/>
      </g>
     </g>
     <g id="text_14">
      <!-- 140 -->
      <g transform="translate(20.878125 26.433065)scale(0.1 -0.1)">
       <use xlink:href="#DejaVuSans-31"/>
       <use xlink:href="#DejaVuSans-34" x="63.623047"/>
       <use xlink:href="#DejaVuSans-30" x="127.246094"/>
      </g>
     </g>
    </g>
    <g id="text_15">
     <!-- GFLOPs -->
     <g transform="translate(14.798437 247.782656)rotate(-90)scale(0.1 -0.1)">
      <defs>
       <path id="DejaVuSans-47" d="M 3809 666 
L 3809 1919 
L 2778 1919 
L 2778 2438 
L 4434 2438 
L 4434 434 
Q 4069 175 3628 42 
Q 3188 -91 2688 -91 
Q 1594 -91 976 548 
Q 359 1188 359 2328 
Q 359 3472 976 4111 
Q 1594 4750 2688 4750 
Q 3144 4750 3555 4637 
Q 3966 4525 4313 4306 
L 4313 3634 
Q 3963 3931 3569 4081 
Q 3175 4231 2741 4231 
Q 1884 4231 1454 3753 
Q 1025 3275 1025 2328 
Q 1025 1384 1454 906 
Q 1884 428 2741 428 
Q 3075 428 3337 486 
Q 3600 544 3809 666 
z
" transform="scale(0.015625)"/>
       <path id="DejaVuSans-46" d="M 628 4666 
L 3309 4666 
L 3309 4134 
L 1259 4134 
L 1259 2759 
L 3109 2759 
L 3109 2228 
L 1259 2228 
L 1259 0 
L 628 0 
L 628 4666 
z
" transform="scale(0.015625)"/>
       <path id="DejaVuSans-4c" d="M 628 4666 
L 1259 4666 
L 1259 531 
L 3531 531 
L 3531 0 
L 628 0 
L 628 4666 
z
" transform="scale(0.015625)"/>
       <path id="DejaVuSans-4f" d="M 2522 4238 
Q 1834 4238 1429 3725 
Q 1025 3213 1025 2328 
Q 1025 1447 1429 934 
Q 1834 422 2522 422 
Q 3209 422 3611 934 
Q 4013 1447 4013 2328 
Q 4013 3213 3611 3725 
Q 3209 4238 2522 4238 
z
M 2522 4750 
Q 3503 4750 4090 4092 
Q 4678 3434 4678 2328 
Q 4678 1225 4090 567 
Q 3503 -91 2522 -91 
Q 1538 -91 948 565 
Q 359 1222 359 2328 
Q 359 3434 948 4092 
Q 1538 4750 2522 4750 
z
" transform="scale(0.015625)"/>
       <path id="DejaVuSans-73" d="M 2834 3397 
L 2834 2853 
Q 2591 2978 2328 3040 
Q 2066 3103 1784 3103 
Q 1356 3103 1142 2972 
Q 928 2841 928 2578 
Q 928 2378 1081 2264 
Q 1234 2150 1697 2047 
L 1894 2003 
Q 2506 1872 2764 1633 
Q 3022 1394 3022 966 
Q 3022 478 2636 193 
Q 2250 -91 1575 -91 
Q 1294 -91 989 -36 
Q 684 19 347 128 
L 347 722 
Q 666 556 975 473 
Q 1284 391 1588 391 
Q 1994 391 2212 530 
Q 2431 669 2431 922 
Q 2431 1156 2273 1281 
Q 2116 1406 1581 1522 
L 1381 1569 
Q 847 1681 609 1914 
Q 372 2147 372 2553 
Q 372 3047 722 3315 
Q 1072 3584 1716 3584 
Q 2034 3584 2315 3537 
Q 2597 3491 2834 3397 
z
" transform="scale(0.015625)"/>
      </defs>
      <use xlink:href="#DejaVuSans-47"/>
      <use xlink:href="#DejaVuSans-46" x="77.490234"/>
      <use xlink:href="#DejaVuSans-4c" x="135.009766"/>
      <use xlink:href="#DejaVuSans-4f" x="187.097656"/>
      <use xlink:href="#DejaVuSans-50" x="265.808594"/>
      <use xlink:href="#DejaVuSans-73" x="324.361328"/>
     </g>
    </g>
   </g>
   <g id="line2d_27">
    <path d="M 67.256534 199.292201 
L 168.71108 255.812122 
L 270.165625 267.150504 
L 371.62017 270.334972 
L 473.074716 268.54425 
" clip-path="url(#pba7c1b84dd)" style="fill: none; stroke: #c7e9b4; stroke-width: 1.5; stroke-linecap: square"/>
    <defs>
     <path id="me4d62f28b1" d="M 0 1.5 
C 0.397805 1.5 0.77937 1.341951 1.06066 1.06066 
C 1.341951 0.77937 1.5 0.397805 1.5 0 
C 1.5 -0.397805 1.341951 -0.77937 1.06066 -1.06066 
C 0.77937 -1.341951 0.397805 -1.5 0 -1.5 
C -0.397805 -1.5 -0.77937 -1.341951 -1.06066 -1.06066 
C -1.341951 -0.77937 -1.5 -0.397805 -1.5 0 
C -1.5 0.397805 -1.341951 0.77937 -1.06066 1.06066 
C -0.77937 1.341951 -0.397805 1.5 0 1.5 
z
" style="stroke: #c7e9b4"/>
    </defs>
    <g clip-path="url(#pba7c1b84dd)">
     <use xlink:href="#me4d62f28b1" x="67.256534" y="199.292201" style="fill: #c7e9b4; stroke: #c7e9b4"/>
     <use xlink:href="#me4d62f28b1" x="168.71108" y="255.812122" style="fill: #c7e9b4; stroke: #c7e9b4"/>
     <use xlink:href="#me4d62f28b1" x="270.165625" y="267.150504" style="fill: #c7e9b4; stroke: #c7e9b4"/>
     <use xlink:href="#me4d62f28b1" x="371.62017" y="270.334972" style="fill: #c7e9b4; stroke: #c7e9b4"/>
     <use xlink:href="#me4d62f28b1" x="473.074716" y="268.54425" style="fill: #c7e9b4; stroke: #c7e9b4"/>
    </g>
   </g>
   <g id="line2d_28">
    <path d="M 67.256534 266.150678 
L 168.71108 267.058652 
L 270.165625 273.59907 
L 371.62017 268.598557 
" clip-path="url(#pba7c1b84dd)" style="fill: none; stroke: #7fcdbb; stroke-width: 1.5; stroke-linecap: square"/>
    <defs>
     <path id="mf7fd731a0f" d="M 0 1.5 
C 0.397805 1.5 0.77937 1.341951 1.06066 1.06066 
C 1.341951 0.77937 1.5 0.397805 1.5 0 
C 1.5 -0.397805 1.341951 -0.77937 1.06066 -1.06066 
C 0.77937 -1.341951 0.397805 -1.5 0 -1.5 
C -0.397805 -1.5 -0.77937 -1.341951 -1.06066 -1.06066 
C -1.341951 -0.77937 -1.5 -0.397805 -1.5 0 
C -1.5 0.397805 -1.341951 0.77937 -1.06066 1.06066 
C -0.77937 1.341951 -0.397805 1.5 0 1.5 
z
" style="stroke: #7fcdbb"/>
    </defs>
    <g clip-path="url(#pba7c1b84dd)">
     <use xlink:href="#mf7fd731a0f" x="67.256534" y="266.150678" style="fill: #7fcdbb; stroke: #7fcdbb"/>
     <use xlink:href="#mf7fd731a0f" x="168.71108" y="267.058652" style="fill: #7fcdbb; stroke: #7fcdbb"/>
     <use xlink:href="#mf7fd731a0f" x="270.165625" y="273.59907" style="fill: #7fcdbb; stroke: #7fcdbb"/>
     <use xlink:href="#mf7fd731a0f" x="371.62017" y="268.598557" style="fill: #7fcdbb; stroke: #7fcdbb"/>
    </g>
   </g>
   <g id="line2d_29">
    <path d="M 67.256534 195.189477 
L 168.71108 240.922941 
L 270.165625 259.385797 
L 371.62017 267.597188 
L 473.074716 266.64654 
" clip-path="url(#pba7c1b84dd)" style="fill: none; stroke: #41b6c4; stroke-width: 1.5; stroke-linecap: square"/>
    <defs>
     <path id="m87e0a1be54" d="M 0 1.5 
C 0.397805 1.5 0.77937 1.341951 1.06066 1.06066 
C 1.341951 0.77937 1.5 0.397805 1.5 0 
C 1.5 -0.397805 1.341951 -0.77937 1.06066 -1.06066 
C 0.77937 -1.341951 0.397805 -1.5 0 -1.5 
C -0.397805 -1.5 -0.77937 -1.341951 -1.06066 -1.06066 
C -1.341951 -0.77937 -1.5 -0.397805 -1.5 0 
C -1.5 0.397805 -1.341951 0.77937 -1.06066 1.06066 
C -0.77937 1.341951 -0.397805 1.5 0 1.5 
z
" style="stroke: #41b6c4"/>
    </defs>
    <g clip-path="url(#pba7c1b84dd)">
     <use xlink:href="#m87e0a1be54" x="67.256534" y="195.189477" style="fill: #41b6c4; stroke: #41b6c4"/>
     <use xlink:href="#m87e0a1be54" x="168.71108" y="240.922941" style="fill: #41b6c4; stroke: #41b6c4"/>
     <use xlink:href="#m87e0a1be54" x="270.165625" y="259.385797" style="fill: #41b6c4; stroke: #41b6c4"/>
     <use xlink:href="#m87e0a1be54" x="371.62017" y="267.597188" style="fill: #41b6c4; stroke: #41b6c4"/>
     <use xlink:href="#m87e0a1be54" x="473.074716" y="266.64654" style="fill: #41b6c4; stroke: #41b6c4"/>
    </g>
   </g>
   <g id="line2d_30">
    <path d="M 67.256534 324.575454 
L 168.71108 227.988049 
L 270.165625 255.174436 
L 371.62017 262.45614 
L 473.074716 265.16656 
" clip-path="url(#pba7c1b84dd)" style="fill: none; stroke: #1d91c0; stroke-width: 1.5; stroke-linecap: square"/>
    <defs>
     <path id="md1ef4729bf" d="M 0 1.5 
C 0.397805 1.5 0.77937 1.341951 1.06066 1.06066 
C 1.341951 0.77937 1.5 0.397805 1.5 0 
C 1.5 -0.397805 1.341951 -0.77937 1.06066 -1.06066 
C 0.77937 -1.341951 0.397805 -1.5 0 -1.5 
C -0.397805 -1.5 -0.77937 -1.341951 -1.06066 -1.06066 
C -1.341951 -0.77937 -1.5 -0.397805 -1.5 0 
C -1.5 0.397805 -1.341951 0.77937 -1.06066 1.06066 
C -0.77937 1.341951 -0.397805 1.5 0 1.5 
z
" style="stroke: #1d91c0"/>
    </defs>
    <g clip-path="url(#pba7c1b84dd)">
     <use xlink:href="#md1ef4729bf" x="67.256534" y="324.575454" style="fill: #1d91c0; stroke: #1d91c0"/>
     <use xlink:href="#md1ef4729bf" x="168.71108" y="227.988049" style="fill: #1d91c0; stroke: #1d91c0"/>
     <use xlink:href="#md1ef4729bf" x="270.165625" y="255.174436" style="fill: #1d91c0; stroke: #1d91c0"/>
     <use xlink:href="#md1ef4729bf" x="371.62017" y="262.45614" style="fill: #1d91c0; stroke: #1d91c0"/>
     <use xlink:href="#md1ef4729bf" x="473.074716" y="265.16656" style="fill: #1d91c0; stroke: #1d91c0"/>
    </g>
   </g>
   <g id="line2d_31">
    <path d="M 67.256534 358.434515 
L 168.71108 229.92296 
L 270.165625 254.044578 
L 371.62017 258.247231 
L 473.074716 262.512354 
" clip-path="url(#pba7c1b84dd)" style="fill: none; stroke: #225ea8; stroke-width: 1.5; stroke-linecap: square"/>
    <defs>
     <path id="mddbd98a33d" d="M 0 1.5 
C 0.397805 1.5 0.77937 1.341951 1.06066 1.06066 
C 1.341951 0.77937 1.5 0.397805 1.5 0 
C 1.5 -0.397805 1.341951 -0.77937 1.06066 -1.06066 
C 0.77937 -1.341951 0.397805 -1.5 0 -1.5 
C -0.397805 -1.5 -0.77937 -1.341951 -1.06066 -1.06066 
C -1.341951 -0.77937 -1.5 -0.397805 -1.5 0 
C -1.5 0.397805 -1.341951 0.77937 -1.06066 1.06066 
C -0.77937 1.341951 -0.397805 1.5 0 1.5 
z
" style="stroke: #225ea8"/>
    </defs>
    <g clip-path="url(#pba7c1b84dd)">
     <use xlink:href="#mddbd98a33d" x="67.256534" y="358.434515" style="fill: #225ea8; stroke: #225ea8"/>
     <use xlink:href="#mddbd98a33d" x="168.71108" y="229.92296" style="fill: #225ea8; stroke: #225ea8"/>
     <use xlink:href="#mddbd98a33d" x="270.165625" y="254.044578" style="fill: #225ea8; stroke: #225ea8"/>
     <use xlink:href="#mddbd98a33d" x="371.62017" y="258.247231" style="fill: #225ea8; stroke: #225ea8"/>
     <use xlink:href="#mddbd98a33d" x="473.074716" y="262.512354" style="fill: #225ea8; stroke: #225ea8"/>
    </g>
   </g>
   <g id="line2d_32">
    <path d="M 67.256534 430.56 
L 168.71108 395.113846 
L 270.165625 233.243077 
L 371.62017 51.581538 
L 473.074716 27.36 
" clip-path="url(#pba7c1b84dd)" style="fill: none; stroke: #228ea8; stroke-width: 1.5; stroke-linecap: square"/>
    <defs>
     <path id="m08d0fcb779" d="M 0 1.5 
C 0.397805 1.5 0.77937 1.341951 1.06066 1.06066 
C 1.341951 0.77937 1.5 0.397805 1.5 0 
C 1.5 -0.397805 1.341951 -0.77937 1.06066 -1.06066 
C 0.77937 -1.341951 0.397805 -1.5 0 -1.5 
C -0.397805 -1.5 -0.77937 -1.341951 -1.06066 -1.06066 
C -1.341951 -0.77937 -1.5 -0.397805 -1.5 0 
C -1.5 0.397805 -1.341951 0.77937 -1.06066 1.06066 
C -0.77937 1.341951 -0.397805 1.5 0 1.5 
z
" style="stroke: #228ea8"/>
    </defs>
    <g clip-path="url(#pba7c1b84dd)">
     <use xlink:href="#m08d0fcb779" x="67.256534" y="430.56" style="fill: #228ea8; stroke: #228ea8"/>
     <use xlink:href="#m08d0fcb779" x="168.71108" y="395.113846" style="fill: #228ea8; stroke: #228ea8"/>
     <use xlink:href="#m08d0fcb779" x="270.165625" y="233.243077" style="fill: #228ea8; stroke: #228ea8"/>
     <use xlink:href="#m08d0fcb779" x="371.62017" y="51.581538" style="fill: #228ea8; stroke: #228ea8"/>
     <use xlink:href="#m08d0fcb779" x="473.074716" y="27.36" style="fill: #228ea8; stroke: #228ea8"/>
    </g>
   </g>
   <g id="patch_3">
    <path d="M 46.965625 450.72 
L 46.965625 7.2 
" style="fill: none; stroke: #000000; stroke-width: 0.8; stroke-linejoin: miter; stroke-linecap: square"/>
   </g>
   <g id="patch_4">
    <path d="M 493.365625 450.72 
L 493.365625 7.2 
" style="fill: none; stroke: #000000; stroke-width: 0.8; stroke-linejoin: miter; stroke-linecap: square"/>
   </g>
   <g id="patch_5">
    <path d="M 46.965625 450.72 
L 493.365625 450.72 
" style="fill: none; stroke: #000000; stroke-width: 0.8; stroke-linejoin: miter; stroke-linecap: square"/>
   </g>
   <g id="patch_6">
    <path d="M 46.965625 7.2 
L 493.365625 7.2 
" style="fill: none; stroke: #000000; stroke-width: 0.8; stroke-linejoin: miter; stroke-linecap: square"/>
   </g>
   <g id="legend_1">
    <g id="patch_7">
     <path d="M 53.965625 103.26875 
L 156.459375 103.26875 
Q 158.459375 103.26875 158.459375 101.26875 
L 158.459375 14.2 
Q 158.459375 12.2 156.459375 12.2 
L 53.965625 12.2 
Q 51.965625 12.2 51.965625 14.2 
L 51.965625 101.26875 
Q 51.965625 103.26875 53.965625 103.26875 
z
" style="fill: #ffffff; opacity: 0.8; stroke: #cccccc; stroke-linejoin: miter"/>
    </g>
    <g id="line2d_33">
     <path d="M 55.965625 20.298437 
L 65.965625 20.298437 
L 75.965625 20.298437 
" style="fill: none; stroke: #c7e9b4; stroke-width: 1.5; stroke-linecap: square"/>
     <g>
      <use xlink:href="#me4d62f28b1" x="65.965625" y="20.298437" style="fill: #c7e9b4; stroke: #c7e9b4"/>
     </g>
    </g>
    <g id="text_16">
     <!-- cpu 64 cores -->
     <g transform="translate(83.965625 23.798437)scale(0.1 -0.1)">
      <defs>
       <path id="DejaVuSans-63" d="M 3122 3366 
L 3122 2828 
Q 2878 2963 2633 3030 
Q 2388 3097 2138 3097 
Q 1578 3097 1268 2742 
Q 959 2388 959 1747 
Q 959 1106 1268 751 
Q 1578 397 2138 397 
Q 2388 397 2633 464 
Q 2878 531 3122 666 
L 3122 134 
Q 2881 22 2623 -34 
Q 2366 -91 2075 -91 
Q 1284 -91 818 406 
Q 353 903 353 1747 
Q 353 2603 823 3093 
Q 1294 3584 2113 3584 
Q 2378 3584 2631 3529 
Q 2884 3475 3122 3366 
z
" transform="scale(0.015625)"/>
       <path id="DejaVuSans-70" d="M 1159 525 
L 1159 -1331 
L 581 -1331 
L 581 3500 
L 1159 3500 
L 1159 2969 
Q 1341 3281 1617 3432 
Q 1894 3584 2278 3584 
Q 2916 3584 3314 3078 
Q 3713 2572 3713 1747 
Q 3713 922 3314 415 
Q 2916 -91 2278 -91 
Q 1894 -91 1617 61 
Q 1341 213 1159 525 
z
M 3116 1747 
Q 3116 2381 2855 2742 
Q 2594 3103 2138 3103 
Q 1681 3103 1420 2742 
Q 1159 2381 1159 1747 
Q 1159 1113 1420 752 
Q 1681 391 2138 391 
Q 2594 391 2855 752 
Q 3116 1113 3116 1747 
z
" transform="scale(0.015625)"/>
       <path id="DejaVuSans-75" d="M 544 1381 
L 544 3500 
L 1119 3500 
L 1119 1403 
Q 1119 906 1312 657 
Q 1506 409 1894 409 
Q 2359 409 2629 706 
Q 2900 1003 2900 1516 
L 2900 3500 
L 3475 3500 
L 3475 0 
L 2900 0 
L 2900 538 
Q 2691 219 2414 64 
Q 2138 -91 1772 -91 
Q 1169 -91 856 284 
Q 544 659 544 1381 
z
M 1991 3584 
L 1991 3584 
z
" transform="scale(0.015625)"/>
      </defs>
      <use xlink:href="#DejaVuSans-63"/>
      <use xlink:href="#DejaVuSans-70" x="54.980469"/>
      <use xlink:href="#DejaVuSans-75" x="118.457031"/>
      <use xlink:href="#DejaVuSans-20" x="181.835938"/>
      <use xlink:href="#DejaVuSans-36" x="213.623047"/>
      <use xlink:href="#DejaVuSans-34" x="277.246094"/>
      <use xlink:href="#DejaVuSans-20" x="340.869141"/>
      <use xlink:href="#DejaVuSans-63" x="372.65625"/>
      <use xlink:href="#DejaVuSans-6f" x="427.636719"/>
      <use xlink:href="#DejaVuSans-72" x="488.818359"/>
      <use xlink:href="#DejaVuSans-65" x="527.681641"/>
      <use xlink:href="#DejaVuSans-73" x="589.205078"/>
     </g>
    </g>
    <g id="line2d_34">
     <path d="M 55.965625 34.976562 
L 65.965625 34.976562 
L 75.965625 34.976562 
" style="fill: none; stroke: #7fcdbb; stroke-width: 1.5; stroke-linecap: square"/>
     <g>
      <use xlink:href="#mf7fd731a0f" x="65.965625" y="34.976562" style="fill: #7fcdbb; stroke: #7fcdbb"/>
     </g>
    </g>
    <g id="text_17">
     <!-- cpu 128 cores -->
     <g transform="translate(83.965625 38.476562)scale(0.1 -0.1)">
      <use xlink:href="#DejaVuSans-63"/>
      <use xlink:href="#DejaVuSans-70" x="54.980469"/>
      <use xlink:href="#DejaVuSans-75" x="118.457031"/>
      <use xlink:href="#DejaVuSans-20" x="181.835938"/>
      <use xlink:href="#DejaVuSans-31" x="213.623047"/>
      <use xlink:href="#DejaVuSans-32" x="277.246094"/>
      <use xlink:href="#DejaVuSans-38" x="340.869141"/>
      <use xlink:href="#DejaVuSans-20" x="404.492188"/>
      <use xlink:href="#DejaVuSans-63" x="436.279297"/>
      <use xlink:href="#DejaVuSans-6f" x="491.259766"/>
      <use xlink:href="#DejaVuSans-72" x="552.441406"/>
      <use xlink:href="#DejaVuSans-65" x="591.304688"/>
      <use xlink:href="#DejaVuSans-73" x="652.828125"/>
     </g>
    </g>
    <g id="line2d_35">
     <path d="M 55.965625 49.654687 
L 65.965625 49.654687 
L 75.965625 49.654687 
" style="fill: none; stroke: #41b6c4; stroke-width: 1.5; stroke-linecap: square"/>
     <g>
      <use xlink:href="#m87e0a1be54" x="65.965625" y="49.654687" style="fill: #41b6c4; stroke: #41b6c4"/>
     </g>
    </g>
    <g id="text_18">
     <!-- cpu 32 cores -->
     <g transform="translate(83.965625 53.154687)scale(0.1 -0.1)">
      <use xlink:href="#DejaVuSans-63"/>
      <use xlink:href="#DejaVuSans-70" x="54.980469"/>
      <use xlink:href="#DejaVuSans-75" x="118.457031"/>
      <use xlink:href="#DejaVuSans-20" x="181.835938"/>
      <use xlink:href="#DejaVuSans-33" x="213.623047"/>
      <use xlink:href="#DejaVuSans-32" x="277.246094"/>
      <use xlink:href="#DejaVuSans-20" x="340.869141"/>
      <use xlink:href="#DejaVuSans-63" x="372.65625"/>
      <use xlink:href="#DejaVuSans-6f" x="427.636719"/>
      <use xlink:href="#DejaVuSans-72" x="488.818359"/>
      <use xlink:href="#DejaVuSans-65" x="527.681641"/>
      <use xlink:href="#DejaVuSans-73" x="589.205078"/>
     </g>
    </g>
    <g id="line2d_36">
     <path d="M 55.965625 64.332812 
L 65.965625 64.332812 
L 75.965625 64.332812 
" style="fill: none; stroke: #1d91c0; stroke-width: 1.5; stroke-linecap: square"/>
     <g>
      <use xlink:href="#md1ef4729bf" x="65.965625" y="64.332812" style="fill: #1d91c0; stroke: #1d91c0"/>
     </g>
    </g>
    <g id="text_19">
     <!-- cpu 16 cores -->
     <g transform="translate(83.965625 67.832812)scale(0.1 -0.1)">
      <use xlink:href="#DejaVuSans-63"/>
      <use xlink:href="#DejaVuSans-70" x="54.980469"/>
      <use xlink:href="#DejaVuSans-75" x="118.457031"/>
      <use xlink:href="#DejaVuSans-20" x="181.835938"/>
      <use xlink:href="#DejaVuSans-31" x="213.623047"/>
      <use xlink:href="#DejaVuSans-36" x="277.246094"/>
      <use xlink:href="#DejaVuSans-20" x="340.869141"/>
      <use xlink:href="#DejaVuSans-63" x="372.65625"/>
      <use xlink:href="#DejaVuSans-6f" x="427.636719"/>
      <use xlink:href="#DejaVuSans-72" x="488.818359"/>
      <use xlink:href="#DejaVuSans-65" x="527.681641"/>
      <use xlink:href="#DejaVuSans-73" x="589.205078"/>
     </g>
    </g>
    <g id="line2d_37">
     <path d="M 55.965625 79.010937 
L 65.965625 79.010937 
L 75.965625 79.010937 
" style="fill: none; stroke: #225ea8; stroke-width: 1.5; stroke-linecap: square"/>
     <g>
      <use xlink:href="#mddbd98a33d" x="65.965625" y="79.010937" style="fill: #225ea8; stroke: #225ea8"/>
     </g>
    </g>
    <g id="text_20">
     <!-- cpu 8 cores -->
     <g transform="translate(83.965625 82.510937)scale(0.1 -0.1)">
      <use xlink:href="#DejaVuSans-63"/>
      <use xlink:href="#DejaVuSans-70" x="54.980469"/>
      <use xlink:href="#DejaVuSans-75" x="118.457031"/>
      <use xlink:href="#DejaVuSans-20" x="181.835938"/>
      <use xlink:href="#DejaVuSans-38" x="213.623047"/>
      <use xlink:href="#DejaVuSans-20" x="277.246094"/>
      <use xlink:href="#DejaVuSans-63" x="309.033203"/>
      <use xlink:href="#DejaVuSans-6f" x="364.013672"/>
      <use xlink:href="#DejaVuSans-72" x="425.195312"/>
      <use xlink:href="#DejaVuSans-65" x="464.058594"/>
      <use xlink:href="#DejaVuSans-73" x="525.582031"/>
     </g>
    </g>
    <g id="line2d_38">
     <path d="M 55.965625 93.689062 
L 65.965625 93.689062 
L 75.965625 93.689062 
" style="fill: none; stroke: #228ea8; stroke-width: 1.5; stroke-linecap: square"/>
     <g>
      <use xlink:href="#m08d0fcb779" x="65.965625" y="93.689062" style="fill: #228ea8; stroke: #228ea8"/>
     </g>
    </g>
    <g id="text_21">
     <!-- gpu -->
     <g transform="translate(83.965625 97.189062)scale(0.1 -0.1)">
      <defs>
       <path id="DejaVuSans-67" d="M 2906 1791 
Q 2906 2416 2648 2759 
Q 2391 3103 1925 3103 
Q 1463 3103 1205 2759 
Q 947 2416 947 1791 
Q 947 1169 1205 825 
Q 1463 481 1925 481 
Q 2391 481 2648 825 
Q 2906 1169 2906 1791 
z
M 3481 434 
Q 3481 -459 3084 -895 
Q 2688 -1331 1869 -1331 
Q 1566 -1331 1297 -1286 
Q 1028 -1241 775 -1147 
L 775 -588 
Q 1028 -725 1275 -790 
Q 1522 -856 1778 -856 
Q 2344 -856 2625 -561 
Q 2906 -266 2906 331 
L 2906 616 
Q 2728 306 2450 153 
Q 2172 0 1784 0 
Q 1141 0 747 490 
Q 353 981 353 1791 
Q 353 2603 747 3093 
Q 1141 3584 1784 3584 
Q 2172 3584 2450 3431 
Q 2728 3278 2906 2969 
L 2906 3500 
L 3481 3500 
L 3481 434 
z
" transform="scale(0.015625)"/>
      </defs>
      <use xlink:href="#DejaVuSans-67"/>
      <use xlink:href="#DejaVuSans-70" x="63.476562"/>
      <use xlink:href="#DejaVuSans-75" x="126.953125"/>
     </g>
    </g>
   </g>
  </g>
 </g>
 <defs>
  <clipPath id="pba7c1b84dd">
   <rect x="46.965625" y="7.2" width="446.4" height="443.52"/>
  </clipPath>
 </defs>
</svg>
